<svg id="svg" version="1.1" xmlns="http://www.w3.org/2000/svg" xmlns:xlink="http://www.w3.org/1999/xlink" width="400" height="400" viewBox="0, 0, 400,400"><g id="svgg"><path id="path0" d="M174.000 25.275 C 145.420 27.168,108.000 40.338,81.804 57.721 C 37.112 87.379,18.207 126.607,28.972 167.349 C 30.566 173.383,34.018 182.917,34.778 183.387 C 35.581 183.883,39.228 177.445,46.778 162.200 C 56.609 142.352,63.527 131.356,74.173 118.660 C 81.740 109.636,84.289 106.838,91.175 100.000 C 107.560 83.729,123.974 72.495,139.629 66.839 C 144.670 65.017,145.363 65.241,141.989 67.600 C 139.828 69.110,127.965 77.971,123.153 81.669 C 86.663 109.709,60.575 149.510,44.413 201.800 C 43.098 206.053,40.578 217.401,39.615 223.400 C 39.368 224.940,39.076 226.740,38.967 227.400 C 34.430 254.799,40.154 286.249,53.382 306.600 C 73.193 337.079,117.050 355.081,141.371 342.715 C 150.266 338.193,153.997 333.591,162.543 316.600 C 165.088 311.540,169.078 303.710,171.409 299.200 C 175.780 290.746,181.636 279.341,190.717 261.600 C 197.471 248.406,209.077 222.504,211.808 214.533 C 214.097 207.852,213.219 199.394,209.384 191.167 C 203.822 179.236,204.631 170.362,213.098 150.400 C 216.476 142.436,223.398 127.522,226.000 122.600 C 227.046 120.620,229.296 116.300,230.999 113.000 C 232.701 109.700,234.229 106.820,234.393 106.600 C 234.557 106.380,235.739 104.220,237.020 101.800 C 238.301 99.380,239.855 96.537,240.474 95.482 C 241.094 94.428,241.600 93.505,241.600 93.431 C 241.600 93.358,242.380 91.880,243.333 90.149 C 244.287 88.417,246.021 85.200,247.188 83.000 C 248.354 80.800,250.097 77.536,251.061 75.747 L 252.814 72.493 247.559 69.809 C 243.223 67.594,242.218 67.219,241.814 67.662 C 241.378 68.140,234.952 78.091,225.192 93.400 C 201.179 131.068,188.126 155.898,186.362 167.269 C 185.578 172.324,186.499 178.458,189.775 190.000 C 194.074 205.142,193.496 207.790,180.084 234.400 C 174.928 244.630,170.576 253.180,170.414 253.400 C 170.252 253.620,166.733 260.460,162.595 268.600 C 142.044 309.019,140.088 311.476,124.600 316.310 C 117.984 318.375,104.184 316.222,96.434 311.915 C 78.181 301.773,65.572 286.106,59.480 266.000 C 54.551 249.729,54.663 229.802,59.787 211.400 C 61.386 205.657,64.799 203.979,85.800 198.616 C 104.372 193.874,109.560 192.151,119.101 187.556 C 142.345 176.364,152.392 163.518,177.414 113.000 C 199.395 68.619,209.181 54.182,226.700 40.283 C 231.324 36.615,231.181 36.832,229.700 35.739 C 218.320 27.340,198.638 23.642,174.000 25.275 " stroke="none" fill="#3ca43c" fill-rule="evenodd"></path><path id="path1" d="M285.200 52.143 C 285.200 52.222,286.235 52.968,287.500 53.801 C 310.218 68.755,329.007 90.181,341.341 115.200 C 343.857 120.305,344.700 122.159,345.978 125.400 C 346.151 125.840,346.480 126.650,346.709 127.200 C 347.873 129.995,350.492 137.554,351.214 140.200 C 352.378 144.465,354.087 151.279,354.375 152.800 C 355.684 159.710,356.362 164.363,357.186 172.077 C 357.719 177.071,357.723 194.792,357.191 199.200 C 355.883 210.041,355.043 214.914,353.122 222.800 C 351.228 230.573,347.631 241.034,344.318 248.400 C 343.873 249.390,343.154 251.010,342.720 252.000 C 339.895 258.450,334.916 267.095,329.492 274.970 C 313.898 297.610,288.306 318.617,263.800 328.893 C 262.920 329.262,261.480 329.859,260.600 330.220 C 259.720 330.581,258.460 331.109,257.800 331.393 C 254.760 332.701,250.333 334.173,245.000 335.650 C 244.120 335.893,242.950 336.231,242.400 336.400 C 240.906 336.859,238.435 337.497,236.300 337.975 C 230.840 339.197,231.342 339.096,226.000 340.033 C 217.938 341.447,202.418 342.436,195.600 341.970 C 193.070 341.797,190.325 341.643,189.500 341.628 C 187.112 341.583,185.507 345.326,204.007 307.800 C 213.138 289.278,220.875 273.535,229.168 256.600 C 238.687 237.164,239.673 235.494,244.070 231.381 C 246.291 229.304,255.504 224.000,256.891 224.000 C 257.048 224.000,258.172 223.550,259.388 223.000 C 260.605 222.450,262.595 221.550,263.812 221.000 C 265.028 220.450,266.110 220.000,266.216 220.000 C 268.494 220.000,276.615 214.205,279.738 210.352 C 283.371 205.868,289.689 194.011,295.431 180.900 C 295.744 180.185,296.256 179.015,296.569 178.300 C 296.882 177.585,297.526 176.010,298.000 174.800 C 298.474 173.590,299.118 172.015,299.431 171.300 C 299.744 170.585,300.255 169.415,300.566 168.700 C 300.877 167.985,301.794 165.690,302.603 163.600 C 303.411 161.510,304.219 159.440,304.398 159.000 C 304.577 158.560,305.298 156.670,306.000 154.800 C 306.702 152.930,307.422 151.040,307.599 150.600 C 307.777 150.160,308.317 148.720,308.800 147.400 C 309.283 146.080,309.823 144.640,310.000 144.200 C 310.177 143.760,310.682 142.410,311.122 141.200 C 311.562 139.990,312.227 138.190,312.599 137.200 C 312.971 136.210,313.538 134.590,313.858 133.600 C 314.178 132.610,314.602 131.440,314.800 131.000 C 314.998 130.560,315.427 129.390,315.753 128.400 C 316.080 127.410,316.915 125.070,317.609 123.200 C 318.303 121.330,319.022 119.350,319.205 118.800 C 319.389 118.250,320.292 115.730,321.213 113.200 C 323.562 106.740,323.776 107.378,318.381 104.753 C 311.847 101.574,312.314 101.616,311.209 104.096 C 309.699 107.484,308.549 110.067,307.645 112.100 C 307.180 113.145,306.420 114.855,305.954 115.900 C 304.654 118.822,303.579 121.242,302.800 123.000 C 301.186 126.643,300.257 128.718,299.306 130.800 C 298.754 132.010,297.986 133.720,297.600 134.600 C 297.214 135.480,296.426 137.235,295.849 138.500 C 295.272 139.765,294.370 141.745,293.844 142.900 C 287.345 157.171,278.421 174.771,273.632 182.762 C 262.979 200.536,256.647 206.246,245.200 208.402 C 237.937 209.769,233.435 211.993,228.276 216.761 C 226.919 218.015,221.600 225.560,221.600 226.231 C 221.600 226.366,221.266 226.954,220.858 227.538 C 220.090 228.636,215.394 236.991,212.392 242.600 C 211.450 244.360,210.056 246.880,209.293 248.200 C 208.006 250.430,199.609 267.299,186.694 293.600 C 181.552 304.073,178.063 311.167,161.809 344.200 C 150.156 367.882,149.890 368.450,150.284 368.844 C 150.652 369.212,156.392 370.684,161.000 371.592 C 162.320 371.852,164.120 372.216,165.000 372.401 C 168.537 373.143,171.187 373.562,175.000 373.980 C 177.200 374.222,180.449 374.595,182.221 374.810 C 186.493 375.327,208.492 375.311,212.800 374.788 C 214.670 374.560,217.730 374.189,219.600 373.963 C 229.129 372.812,238.615 370.753,249.000 367.582 C 253.897 366.087,260.492 363.765,262.644 362.780 C 264.061 362.131,265.300 361.600,265.398 361.600 C 266.556 361.600,281.027 354.228,287.000 350.595 C 288.540 349.659,291.060 348.126,292.600 347.189 C 312.400 335.140,335.153 311.797,347.677 290.682 C 348.918 288.589,349.691 287.252,351.235 284.525 C 352.285 282.672,355.963 275.316,357.299 272.400 C 359.139 268.381,360.000 266.411,360.000 266.216 C 360.000 266.110,360.434 265.073,360.964 263.912 C 365.587 253.779,370.786 234.113,372.362 220.800 C 374.051 206.534,374.052 193.873,372.366 180.000 C 371.510 172.965,370.532 167.548,368.790 160.200 C 368.321 158.220,367.792 156.150,367.615 155.600 C 367.438 155.050,367.064 153.790,366.785 152.800 C 365.677 148.877,362.684 140.146,360.853 135.499 C 360.130 133.664,358.823 130.833,356.468 126.000 C 354.552 122.068,353.423 119.936,350.650 115.000 C 340.366 96.702,322.889 77.214,305.400 64.541 C 301.751 61.897,292.895 56.000,292.574 56.000 C 292.436 56.000,291.846 55.667,291.262 55.261 C 289.192 53.821,285.200 51.767,285.200 52.143 M262.070 77.724 C 261.715 78.159,256.790 88.081,239.198 123.800 C 215.546 171.826,217.135 168.194,218.187 171.815 C 220.216 178.794,228.204 180.903,233.515 175.862 C 234.384 175.037,236.439 171.357,239.576 165.007 C 245.698 152.614,259.209 125.219,267.001 109.400 C 270.360 102.580,274.299 94.595,275.754 91.656 C 279.203 84.691,279.623 85.618,271.101 81.400 C 262.238 77.014,262.547 77.140,262.070 77.724 M280.867 100.500 C 277.794 106.715,271.909 118.640,267.789 127.000 C 263.669 135.360,256.610 149.670,252.102 158.800 C 241.740 179.791,242.310 178.463,242.310 181.600 C 242.309 189.751,251.725 193.521,257.946 187.861 C 258.812 187.074,261.959 180.849,277.997 148.200 C 282.992 138.032,288.598 126.635,299.316 104.860 L 303.126 97.120 294.996 93.160 C 290.525 90.982,286.774 89.200,286.660 89.200 C 286.546 89.200,283.939 94.285,280.867 100.500 " stroke="none" fill="#f48535" fill-rule="evenodd"></path><path id="path2" d="M0.000 200.000 L 0.000 400.000 200.000 400.000 L 400.000 400.000 400.000 200.000 L 400.000 0.000 200.000 0.000 L 0.000 0.000 0.000 200.000 M200.596 25.007 C 211.580 26.292,221.932 29.750,229.100 34.527 C 232.330 36.680,232.287 36.881,227.900 40.194 C 215.503 49.554,203.197 65.146,191.903 85.800 C 187.929 93.068,185.594 97.715,173.312 122.800 C 153.346 163.578,140.422 178.756,116.484 189.542 C 108.320 193.220,102.909 194.943,86.000 199.249 C 75.555 201.909,68.361 204.233,64.318 206.252 L 61.636 207.592 60.785 210.452 C 51.906 240.264,57.113 272.144,74.208 292.638 C 95.510 318.175,123.364 323.849,140.450 306.130 C 143.937 302.514,146.674 298.233,151.403 289.000 C 153.544 284.820,156.871 278.340,158.796 274.600 C 160.721 270.860,164.952 262.580,168.199 256.200 C 171.446 249.820,174.869 243.160,175.807 241.400 C 191.978 211.053,193.267 206.266,189.323 191.200 C 183.539 169.106,183.799 166.342,193.530 146.400 C 200.756 131.592,211.673 113.130,230.629 83.663 C 232.845 80.218,236.245 74.925,238.186 71.900 C 242.320 65.454,241.320 65.740,247.800 69.159 C 253.890 72.372,253.795 72.171,251.366 76.689 C 249.527 80.109,242.984 92.187,240.797 96.200 C 240.198 97.300,238.489 100.450,237.000 103.200 C 235.511 105.950,233.843 109.010,233.292 110.000 C 230.519 114.983,221.341 133.484,218.409 140.000 C 205.398 168.913,203.904 177.659,209.799 190.398 C 213.819 199.084,214.808 207.966,212.496 214.600 C 209.616 222.859,197.485 250.123,192.028 260.600 C 190.309 263.900,187.014 270.290,184.705 274.800 C 182.397 279.310,178.297 287.320,175.594 292.600 C 172.891 297.880,170.191 303.100,169.594 304.200 C 168.997 305.300,166.061 311.060,163.070 317.000 C 154.748 333.526,151.809 337.334,143.636 342.179 C 119.060 356.748,72.643 338.452,52.355 306.200 C 28.847 268.830,32.372 214.086,62.056 155.523 C 80.033 120.056,101.079 96.411,139.526 68.483 C 141.546 67.016,140.871 67.050,136.995 68.613 C 114.039 77.868,90.208 98.213,68.419 127.159 C 58.884 139.827,55.023 146.518,43.696 170.010 C 39.186 179.362,35.602 184.943,34.529 184.280 C 33.815 183.838,30.090 174.008,28.663 168.798 C 18.767 132.670,30.980 98.923,64.400 70.048 C 100.574 38.794,157.504 19.967,200.596 25.007 M279.200 48.400 C 279.200 48.620,279.457 48.800,279.771 48.800 C 282.001 48.800,298.727 58.911,307.800 65.744 C 319.548 74.591,333.928 89.312,341.652 100.400 C 345.490 105.911,347.091 108.304,348.872 111.200 C 362.382 133.155,370.265 156.543,373.272 183.600 C 374.058 190.678,373.929 213.329,373.067 219.371 C 372.693 221.995,372.290 224.875,372.171 225.771 C 372.052 226.667,371.797 228.120,371.604 229.000 C 371.411 229.880,371.037 231.770,370.772 233.200 C 359.049 296.536,308.469 351.285,245.200 369.125 C 234.957 372.013,232.387 372.573,223.000 373.965 C 221.460 374.193,218.670 374.610,216.800 374.890 C 212.108 375.594,184.138 375.589,178.400 374.884 C 164.475 373.172,149.600 369.994,149.600 368.732 C 149.600 368.339,152.503 362.119,156.051 354.909 C 159.599 347.699,164.527 337.660,167.001 332.600 C 169.476 327.540,175.503 315.300,180.396 305.400 C 185.289 295.500,190.419 285.060,191.797 282.200 C 197.132 271.121,207.558 250.366,210.182 245.600 C 224.104 220.315,225.227 218.589,230.600 214.223 C 232.996 212.275,239.662 208.800,241.000 208.800 C 241.389 208.800,242.358 208.629,243.154 208.420 C 243.949 208.210,246.129 207.660,247.997 207.197 C 263.252 203.414,274.231 186.247,303.252 120.800 C 305.447 115.850,307.527 111.183,307.874 110.429 C 308.221 109.675,309.191 107.515,310.029 105.629 C 312.095 100.981,311.757 101.044,318.136 104.119 C 324.294 107.087,324.042 106.663,322.376 111.238 C 321.703 113.087,320.639 116.040,320.013 117.800 C 318.647 121.641,315.456 130.539,313.271 136.600 C 295.065 187.111,283.633 209.993,273.114 216.977 C 271.028 218.362,269.570 219.041,257.157 224.411 C 245.039 229.654,240.922 233.551,235.405 245.000 C 234.239 247.420,229.285 257.500,224.395 267.400 C 219.506 277.300,213.928 288.640,212.001 292.600 C 210.073 296.560,203.975 308.955,198.448 320.145 C 192.922 331.334,188.400 340.625,188.400 340.790 C 188.400 342.226,211.794 341.716,223.200 340.031 C 228.313 339.276,235.469 337.842,239.300 336.806 C 248.355 334.356,252.764 332.927,258.373 330.625 C 262.278 329.022,263.915 328.307,268.800 326.075 C 285.061 318.643,305.782 303.094,317.385 289.617 C 339.548 263.876,351.028 238.611,356.198 204.200 C 358.027 192.029,357.409 171.120,354.821 157.600 C 347.093 117.220,325.732 82.331,294.800 59.568 C 288.480 54.918,285.657 53.034,280.420 49.973 C 278.635 48.929,277.742 48.000,278.525 48.000 C 278.896 48.000,279.200 48.180,279.200 48.400 M270.997 80.895 C 275.509 83.148,279.200 85.137,279.200 85.315 C 279.200 85.494,276.970 90.176,274.244 95.720 C 231.591 182.472,234.750 176.460,230.888 178.231 C 224.349 181.231,217.600 176.650,217.600 169.212 C 217.600 166.584,217.707 166.305,222.242 157.161 C 224.795 152.012,228.827 143.840,231.201 139.000 C 233.576 134.160,240.312 120.480,246.171 108.600 C 252.029 96.720,257.943 84.711,259.311 81.913 C 260.680 79.116,262.024 76.821,262.297 76.813 C 262.571 76.806,266.486 78.643,270.997 80.895 M295.334 92.779 C 299.647 94.857,303.244 96.747,303.329 96.979 C 303.414 97.211,301.715 101.000,299.553 105.400 C 293.878 116.954,283.834 137.368,272.986 159.400 C 267.787 169.960,262.705 180.310,261.692 182.400 C 256.570 192.977,246.782 194.511,242.541 185.403 C 240.402 180.810,239.058 184.219,258.788 144.200 C 285.278 90.468,286.143 88.762,286.829 88.883 C 287.195 88.947,291.022 90.701,295.334 92.779 " stroke="none" fill="#fbfbfb" fill-rule="evenodd"></path><path id="path3" d="M176.500 24.697 C 177.985 24.774,180.415 24.774,181.900 24.697 C 183.385 24.620,182.170 24.557,179.200 24.557 C 176.230 24.557,175.015 24.620,176.500 24.697 M190.100 24.696 C 191.365 24.775,193.435 24.775,194.700 24.696 C 195.965 24.616,194.930 24.551,192.400 24.551 C 189.870 24.551,188.835 24.616,190.100 24.696 M169.700 25.076 C 170.085 25.176,170.715 25.176,171.100 25.076 C 171.485 24.975,171.170 24.893,170.400 24.893 C 169.630 24.893,169.315 24.975,169.700 25.076 M166.300 25.482 C 166.795 25.578,167.605 25.578,168.100 25.482 C 168.595 25.387,168.190 25.309,167.200 25.309 C 166.210 25.309,165.805 25.387,166.300 25.482 M201.905 25.483 C 202.402 25.579,203.122 25.575,203.505 25.475 C 203.887 25.375,203.480 25.296,202.600 25.301 C 201.720 25.305,201.407 25.387,201.905 25.483 M161.600 26.000 C 160.243 26.286,160.237 26.295,161.400 26.307 C 162.060 26.315,163.050 26.176,163.600 26.000 C 164.912 25.580,163.596 25.580,161.600 26.000 M157.000 26.800 C 155.911 27.077,155.893 27.107,156.800 27.125 C 157.350 27.135,158.160 26.989,158.600 26.800 C 159.586 26.376,158.666 26.376,157.000 26.800 M209.600 26.782 C 209.930 27.005,210.545 27.191,210.967 27.194 C 211.990 27.202,211.671 26.973,210.200 26.644 C 209.324 26.448,209.162 26.485,209.600 26.782 M152.800 27.600 C 151.996 27.857,151.957 27.923,152.600 27.932 C 153.040 27.938,153.760 27.789,154.200 27.600 C 155.219 27.162,154.168 27.162,152.800 27.600 M146.200 29.200 C 145.696 29.417,145.622 29.544,146.000 29.544 C 146.330 29.544,146.960 29.389,147.400 29.200 C 147.904 28.983,147.978 28.856,147.600 28.856 C 147.270 28.856,146.640 29.011,146.200 29.200 M226.400 32.921 C 226.400 33.012,227.435 33.751,228.700 34.563 C 229.965 35.375,230.508 35.621,229.906 35.110 C 228.718 34.100,226.400 32.653,226.400 32.921 M231.200 36.619 C 231.200 36.960,230.705 37.693,230.100 38.248 L 229.000 39.258 230.300 38.354 C 231.375 37.606,232.126 36.000,231.400 36.000 C 231.290 36.000,231.200 36.279,231.200 36.619 M226.094 41.218 C 224.722 42.328,223.600 43.323,223.600 43.430 C 223.600 43.536,224.770 42.686,226.200 41.540 C 228.535 39.669,229.035 39.200,228.694 39.200 C 228.636 39.200,227.466 40.108,226.094 41.218 M217.992 48.700 L 214.200 52.600 218.100 48.808 C 221.722 45.286,222.182 44.800,221.892 44.800 C 221.833 44.800,220.078 46.555,217.992 48.700 M278.645 48.700 C 279.083 49.085,279.882 49.658,280.420 49.973 C 285.657 53.034,288.480 54.918,294.800 59.568 C 322.525 79.971,343.714 111.912,352.229 146.136 C 354.137 153.804,354.309 154.388,354.359 153.365 C 354.382 152.906,353.755 150.026,352.967 146.965 C 350.985 139.270,351.029 139.426,349.684 135.400 C 348.287 131.218,347.495 129.071,346.031 125.500 C 345.828 125.005,345.333 123.790,344.931 122.800 C 334.292 96.612,312.178 70.045,287.494 53.797 C 286.226 52.962,285.257 52.209,285.342 52.124 C 285.517 51.950,289.651 54.140,291.262 55.261 C 291.846 55.667,292.436 56.000,292.574 56.000 C 292.895 56.000,301.751 61.897,305.400 64.541 C 316.903 72.876,328.154 83.774,337.463 95.600 C 341.422 100.629,348.069 110.409,350.650 115.000 C 353.423 119.936,354.552 122.068,356.468 126.000 C 358.823 130.833,360.130 133.664,360.853 135.499 C 362.684 140.146,365.677 148.877,366.785 152.800 C 367.064 153.790,367.441 155.050,367.623 155.600 C 367.805 156.150,368.267 157.941,368.650 159.580 C 369.033 161.218,369.423 162.330,369.517 162.049 C 369.696 161.511,369.427 160.371,367.519 153.600 C 364.113 141.516,359.174 129.454,353.268 118.800 C 349.357 111.744,347.456 108.732,341.652 100.400 C 333.928 89.312,319.548 74.591,307.800 65.744 C 298.727 58.911,282.001 48.800,279.771 48.800 C 279.457 48.800,279.200 48.620,279.200 48.400 C 279.200 48.180,278.896 48.000,278.525 48.000 C 277.937 48.000,277.952 48.091,278.645 48.700 M87.100 53.429 C 85.605 54.240,85.696 54.578,87.200 53.800 C 87.860 53.459,88.400 53.094,88.400 52.990 C 88.400 52.732,88.357 52.747,87.100 53.429 M80.895 57.411 C 79.743 58.186,78.800 58.908,78.800 59.015 C 78.800 59.121,79.790 58.551,81.000 57.747 C 82.922 56.471,83.487 56.000,83.095 56.000 C 83.037 56.000,82.047 56.635,80.895 57.411 M209.386 58.178 C 209.174 58.475,208.583 59.276,208.073 59.959 C 207.563 60.641,207.218 61.200,207.306 61.200 C 207.589 61.200,210.086 57.953,209.926 57.793 C 209.841 57.708,209.598 57.881,209.386 58.178 M74.200 62.235 L 73.000 63.266 74.400 62.363 C 76.196 61.204,76.201 61.200,75.767 61.202 C 75.565 61.203,74.860 61.668,74.200 62.235 M206.323 62.300 C 205.400 63.376,203.138 66.800,203.350 66.800 C 203.453 66.800,204.356 65.630,205.356 64.200 C 207.139 61.649,207.514 60.912,206.323 62.300 M71.200 64.449 C 69.806 65.671,69.805 65.672,71.088 64.819 C 71.796 64.348,72.482 63.791,72.612 63.581 C 72.997 62.957,72.677 63.154,71.200 64.449 M67.200 67.657 L 65.000 69.689 67.099 68.008 C 68.939 66.534,69.913 65.573,69.524 65.613 C 69.456 65.620,68.410 66.540,67.200 67.657 M140.447 67.622 L 139.543 68.845 140.967 67.922 C 142.443 66.966,142.781 66.400,141.875 66.400 C 141.587 66.400,140.944 66.950,140.447 67.622 M241.046 67.400 C 240.691 67.950,240.109 68.850,239.754 69.400 C 239.399 69.950,239.202 70.400,239.317 70.400 C 239.432 70.400,240.038 69.584,240.663 68.587 C 241.633 67.039,241.947 66.807,242.800 66.999 C 243.562 67.171,243.657 67.127,243.200 66.818 C 242.259 66.182,241.743 66.321,241.046 67.400 M245.600 68.184 C 245.600 68.294,246.320 68.751,247.200 69.200 C 248.080 69.649,248.800 69.926,248.800 69.816 C 248.800 69.706,248.080 69.249,247.200 68.800 C 246.320 68.351,245.600 68.074,245.600 68.184 M62.778 71.500 L 61.400 73.000 62.900 71.622 C 64.296 70.338,64.584 70.000,64.278 70.000 C 64.212 70.000,63.537 70.675,62.778 71.500 M135.200 71.649 C 133.806 72.871,133.805 72.872,135.088 72.019 C 135.796 71.548,136.482 70.991,136.612 70.781 C 136.997 70.157,136.677 70.354,135.200 71.649 M199.046 73.000 C 198.691 73.550,198.109 74.495,197.753 75.100 L 197.105 76.200 197.910 75.226 C 198.860 74.076,200.121 72.000,199.869 72.000 C 199.771 72.000,199.401 72.450,199.046 73.000 M58.189 75.700 L 55.400 78.600 58.300 75.811 C 60.994 73.220,61.383 72.800,61.089 72.800 C 61.028 72.800,59.723 74.105,58.189 75.700 M131.800 74.235 L 130.600 75.266 131.900 74.406 C 132.615 73.933,133.200 73.468,133.200 73.373 C 133.200 73.073,133.031 73.178,131.800 74.235 M251.800 75.200 C 251.459 75.860,251.269 76.400,251.379 76.400 C 251.489 76.400,251.859 75.860,252.200 75.200 C 252.541 74.540,252.731 74.000,252.621 74.000 C 252.511 74.000,252.141 74.540,251.800 75.200 M128.600 76.635 L 127.400 77.666 128.700 76.806 C 129.415 76.333,130.000 75.868,130.000 75.773 C 130.000 75.473,129.831 75.578,128.600 76.635 M235.152 76.500 C 234.890 76.995,234.415 77.850,234.096 78.400 C 233.539 79.359,233.543 79.367,234.188 78.600 C 234.986 77.652,236.105 75.600,235.824 75.600 C 235.716 75.600,235.414 76.005,235.152 76.500 M259.311 81.913 C 257.943 84.711,252.029 96.720,246.171 108.600 C 240.312 120.480,233.576 134.160,231.201 139.000 C 228.827 143.840,224.795 152.012,222.242 157.161 C 219.145 163.406,217.612 166.934,217.636 167.761 C 217.668 168.887,217.718 168.836,218.180 167.200 C 218.459 166.210,221.795 159.100,225.593 151.400 C 229.391 143.700,235.424 131.460,239.000 124.200 C 257.333 86.981,261.980 77.660,262.302 77.461 C 262.935 77.069,278.372 84.934,278.387 85.656 C 278.394 86.017,277.209 88.717,275.754 91.656 C 274.299 94.595,270.360 102.580,267.001 109.400 C 259.209 125.219,245.698 152.614,239.576 165.007 C 236.439 171.357,234.384 175.037,233.515 175.862 C 228.353 180.762,220.652 178.960,218.356 172.314 C 217.955 171.151,217.620 170.583,217.613 171.051 C 217.528 176.620,225.271 180.808,230.888 178.231 C 234.750 176.460,231.591 182.472,274.244 95.720 C 276.970 90.176,279.200 85.494,279.200 85.315 C 279.200 84.931,263.022 76.794,262.297 76.813 C 262.024 76.821,260.680 79.116,259.311 81.913 M125.000 79.444 L 123.400 80.876 125.100 79.604 C 126.563 78.510,127.091 77.983,126.700 78.006 C 126.645 78.009,125.880 78.656,125.000 79.444 M248.228 81.861 C 247.656 82.884,247.252 83.785,247.329 83.863 C 247.407 83.940,247.961 83.103,248.560 82.002 C 249.160 80.901,249.564 80.000,249.459 80.000 C 249.354 80.000,248.800 80.837,248.228 81.861 M52.175 81.700 L 51.000 83.000 52.300 81.825 C 53.015 81.179,53.600 80.594,53.600 80.525 C 53.600 80.216,53.270 80.488,52.175 81.700 M193.400 82.400 C 193.059 83.060,192.869 83.600,192.979 83.600 C 193.089 83.600,193.459 83.060,193.800 82.400 C 194.141 81.740,194.331 81.200,194.221 81.200 C 194.111 81.200,193.741 81.740,193.400 82.400 M49.775 84.500 L 48.600 85.800 49.900 84.625 C 51.112 83.530,51.384 83.200,51.075 83.200 C 51.006 83.200,50.421 83.785,49.775 84.500 M118.370 84.700 L 117.400 85.800 118.600 84.800 C 119.260 84.250,119.875 83.755,119.967 83.700 C 120.058 83.645,119.955 83.600,119.736 83.600 C 119.518 83.600,118.903 84.095,118.370 84.700 M246.200 85.600 C 245.859 86.260,245.669 86.800,245.779 86.800 C 245.889 86.800,246.259 86.260,246.600 85.600 C 246.941 84.940,247.131 84.400,247.021 84.400 C 246.911 84.400,246.541 84.940,246.200 85.600 M115.775 86.900 L 114.600 88.200 115.900 87.025 C 117.112 85.930,117.384 85.600,117.075 85.600 C 117.006 85.600,116.421 86.185,115.775 86.900 M191.000 86.800 C 190.659 87.460,190.469 88.000,190.579 88.000 C 190.689 88.000,191.059 87.460,191.400 86.800 C 191.741 86.140,191.931 85.600,191.821 85.600 C 191.711 85.600,191.341 86.140,191.000 86.800 M46.787 88.016 C 45.858 89.125,45.166 90.091,45.249 90.163 C 45.332 90.234,46.174 89.327,47.119 88.147 C 49.295 85.429,49.037 85.328,46.787 88.016 M227.952 87.700 C 227.690 88.195,227.215 89.050,226.896 89.600 C 226.339 90.559,226.343 90.567,226.988 89.800 C 227.786 88.852,228.905 86.800,228.624 86.800 C 228.516 86.800,228.214 87.205,227.952 87.700 M112.770 89.500 L 111.800 90.600 113.000 89.600 C 113.660 89.050,114.275 88.555,114.367 88.500 C 114.458 88.445,114.355 88.400,114.136 88.400 C 113.918 88.400,113.303 88.895,112.770 89.500 M277.505 106.283 C 252.570 156.721,243.156 175.905,242.235 178.149 C 239.823 184.031,244.739 191.200,251.185 191.200 C 255.671 191.200,258.630 188.722,261.692 182.400 C 262.705 180.310,267.787 169.960,272.986 159.400 C 283.834 137.368,293.878 116.954,299.553 105.400 C 301.715 101.000,303.414 97.211,303.329 96.979 C 303.168 96.538,287.981 89.086,286.829 88.883 C 286.317 88.793,284.174 92.793,277.505 106.283 M294.996 93.160 L 303.126 97.120 299.316 104.860 C 288.598 126.635,282.992 138.032,277.997 148.200 C 261.959 180.849,258.812 187.074,257.946 187.861 C 251.725 193.521,242.309 189.751,242.310 181.600 C 242.310 178.463,241.740 179.791,252.102 158.800 C 256.610 149.670,263.669 135.360,267.789 127.000 C 283.365 95.397,286.459 89.200,286.660 89.200 C 286.774 89.200,290.525 90.982,294.996 93.160 M100.575 91.700 L 99.400 93.000 100.700 91.825 C 101.912 90.730,102.184 90.400,101.875 90.400 C 101.806 90.400,101.221 90.985,100.575 91.700 M108.589 93.300 L 105.800 96.200 108.700 93.411 C 111.394 90.820,111.783 90.400,111.489 90.400 C 111.428 90.400,110.123 91.705,108.589 93.300 M187.800 92.800 C 187.459 93.460,187.269 94.000,187.379 94.000 C 187.489 94.000,187.859 93.460,188.200 92.800 C 188.541 92.140,188.731 91.600,188.621 91.600 C 188.511 91.600,188.141 92.140,187.800 92.800 M42.800 93.200 C 42.330 93.860,42.036 94.400,42.146 94.400 C 42.256 94.400,42.730 93.860,43.200 93.200 C 43.670 92.540,43.964 92.000,43.854 92.000 C 43.744 92.000,43.270 92.540,42.800 93.200 M97.200 94.600 C 96.228 95.590,95.523 96.400,95.633 96.400 C 95.743 96.400,96.628 95.590,97.600 94.600 C 98.572 93.610,99.277 92.800,99.167 92.800 C 99.057 92.800,98.172 93.610,97.200 94.600 M222.092 96.935 C 221.659 97.669,220.989 98.794,220.605 99.435 L 219.905 100.600 220.733 99.600 C 221.679 98.457,223.344 95.600,223.065 95.600 C 222.963 95.600,222.525 96.201,222.092 96.935 M39.952 97.300 C 39.690 97.795,39.215 98.650,38.896 99.200 C 38.339 100.159,38.343 100.167,38.988 99.400 C 39.786 98.452,40.905 96.400,40.624 96.400 C 40.516 96.400,40.214 96.805,39.952 97.300 M89.600 101.800 C 88.628 102.790,87.923 103.600,88.033 103.600 C 88.143 103.600,89.028 102.790,90.000 101.800 C 90.972 100.810,91.677 100.000,91.567 100.000 C 91.457 100.000,90.572 100.810,89.600 101.800 M311.721 102.100 C 311.514 102.375,310.835 103.770,310.212 105.200 C 309.590 106.630,308.666 108.700,308.161 109.800 C 307.656 110.900,305.446 115.850,303.252 120.800 C 272.311 190.586,262.583 204.898,243.859 208.181 C 243.012 208.330,242.422 208.556,242.549 208.683 C 243.153 209.286,250.966 207.113,254.418 205.382 C 256.995 204.089,260.640 200.827,264.236 196.596 C 271.148 188.464,282.336 168.166,293.889 142.800 C 294.441 141.590,295.343 139.610,295.895 138.400 C 296.446 137.190,297.214 135.480,297.600 134.600 C 297.986 133.720,298.754 132.010,299.306 130.800 C 299.859 129.590,300.691 127.745,301.155 126.700 C 302.629 123.386,303.578 121.250,304.354 119.500 C 306.080 115.613,308.189 110.871,311.209 104.096 C 312.314 101.616,311.847 101.574,318.381 104.753 C 323.634 107.309,323.487 107.027,321.849 111.398 C 320.848 114.069,320.568 115.165,320.997 114.736 C 321.324 114.409,323.600 107.920,323.600 107.315 C 323.600 106.802,313.499 101.600,312.504 101.600 C 312.281 101.600,311.928 101.825,311.721 102.100 M96.380 105.500 C 93.012 109.076,91.843 110.400,92.057 110.400 C 92.174 110.400,93.663 108.870,95.365 107.000 C 97.068 105.130,98.395 103.600,98.315 103.600 C 98.235 103.600,97.364 104.455,96.380 105.500 M217.353 104.500 C 215.976 106.836,215.886 107.035,216.587 106.200 C 217.400 105.232,218.100 104.000,217.838 104.000 C 217.733 104.000,217.515 104.225,217.353 104.500 M84.417 107.385 L 82.233 109.800 84.598 107.514 C 85.898 106.257,86.881 105.171,86.781 105.100 C 86.682 105.029,85.617 106.057,84.417 107.385 M32.865 110.217 C 32.195 111.688,32.323 112.002,33.047 110.665 C 33.386 110.040,33.588 109.454,33.496 109.363 C 33.405 109.271,33.121 109.656,32.865 110.217 M80.975 111.300 L 79.800 112.600 81.100 111.425 C 82.312 110.330,82.584 110.000,82.275 110.000 C 82.206 110.000,81.621 110.585,80.975 111.300 M211.053 114.900 L 210.333 116.200 211.158 115.200 C 211.889 114.313,212.214 113.600,211.886 113.600 C 211.824 113.600,211.449 114.185,211.053 114.900 M320.400 115.272 C 320.400 115.385,319.850 116.990,319.177 118.838 C 318.505 120.687,317.595 123.190,317.155 124.400 C 316.716 125.610,316.087 127.410,315.758 128.400 C 315.429 129.390,315.007 130.560,314.820 131.000 C 313.923 133.115,313.511 134.444,313.696 134.629 C 313.808 134.741,314.536 133.070,315.314 130.916 C 316.092 128.762,317.660 124.421,318.799 121.268 C 319.937 118.115,320.763 115.430,320.634 115.301 C 320.506 115.172,320.400 115.159,320.400 115.272 M73.681 119.853 C 72.736 121.034,72.044 122.000,72.144 122.000 C 72.431 122.000,75.719 117.983,75.551 117.837 C 75.468 117.766,74.626 118.673,73.681 119.853 M208.653 118.900 L 207.933 120.200 208.758 119.200 C 209.489 118.313,209.814 117.600,209.486 117.600 C 209.424 117.600,209.049 118.185,208.653 118.900 M174.865 119.017 C 174.195 120.488,174.323 120.802,175.047 119.465 C 175.386 118.840,175.588 118.254,175.496 118.163 C 175.405 118.071,175.121 118.456,174.865 119.017 M83.944 120.300 C 82.793 121.689,82.306 122.400,82.504 122.400 C 82.614 122.400,83.186 121.770,83.773 121.000 C 84.863 119.571,84.995 119.032,83.944 120.300 M206.253 122.900 L 205.533 124.200 206.358 123.200 C 207.089 122.313,207.414 121.600,207.086 121.600 C 207.024 121.600,206.649 122.185,206.253 122.900 M71.144 123.100 C 69.993 124.489,69.506 125.200,69.704 125.200 C 69.814 125.200,70.386 124.570,70.973 123.800 C 72.063 122.371,72.195 121.832,71.144 123.100 M80.608 124.842 C 79.801 125.965,79.332 126.765,79.566 126.621 C 80.052 126.320,82.532 122.800,82.257 122.800 C 82.157 122.800,81.415 123.719,80.608 124.842 M27.450 125.650 C 27.117 127.317,27.440 127.640,27.800 126.000 C 27.952 125.309,27.993 124.659,27.891 124.558 C 27.789 124.456,27.591 124.947,27.450 125.650 M204.600 125.600 C 204.259 126.260,204.069 126.800,204.179 126.800 C 204.289 126.800,204.659 126.260,205.000 125.600 C 205.341 124.940,205.531 124.400,205.421 124.400 C 205.311 124.400,204.941 124.940,204.600 125.600 M68.744 126.300 C 67.593 127.689,67.106 128.400,67.304 128.400 C 67.414 128.400,67.986 127.770,68.573 127.000 C 69.663 125.571,69.795 125.032,68.744 126.300 M203.000 128.400 C 202.659 129.060,202.469 129.600,202.579 129.600 C 202.689 129.600,203.059 129.060,203.400 128.400 C 203.741 127.740,203.931 127.200,203.821 127.200 C 203.711 127.200,203.341 127.740,203.000 128.400 M66.344 129.500 C 65.193 130.889,64.706 131.600,64.904 131.600 C 65.014 131.600,65.586 130.970,66.173 130.200 C 67.263 128.771,67.395 128.232,66.344 129.500 M26.101 133.400 C 26.105 134.280,26.187 134.593,26.283 134.095 C 26.379 133.598,26.375 132.878,26.275 132.495 C 26.175 132.113,26.096 132.520,26.101 133.400 M166.400 136.000 C 165.734 137.320,165.278 138.400,165.388 138.400 C 165.498 138.400,166.134 137.320,166.800 136.000 C 167.466 134.680,167.922 133.600,167.812 133.600 C 167.702 133.600,167.066 134.680,166.400 136.000 M312.625 137.091 C 311.317 140.705,310.321 143.402,310.000 144.200 C 309.823 144.640,309.283 146.080,308.800 147.400 C 308.317 148.720,307.777 150.160,307.599 150.600 C 307.422 151.040,306.702 152.930,306.000 154.800 C 305.298 156.670,304.577 158.560,304.398 159.000 C 304.219 159.440,303.411 161.510,302.603 163.600 C 301.794 165.690,300.877 167.985,300.566 168.700 C 300.255 169.415,299.744 170.585,299.431 171.300 C 299.118 172.015,298.474 173.590,298.000 174.800 C 295.432 181.351,288.843 195.325,285.458 201.400 C 280.617 210.087,277.768 213.434,272.200 216.969 C 270.371 218.130,266.679 220.000,266.216 220.000 C 266.110 220.000,265.028 220.450,263.812 221.000 C 262.595 221.550,260.605 222.450,259.388 223.000 C 258.172 223.550,257.048 224.000,256.891 224.000 C 255.504 224.000,246.291 229.304,244.070 231.381 C 239.673 235.494,238.687 237.164,229.168 256.600 C 220.875 273.535,213.138 289.278,204.007 307.800 C 185.512 345.317,187.094 341.639,189.500 341.536 C 190.977 341.473,190.980 341.469,189.700 341.311 C 187.955 341.094,187.205 342.909,198.448 320.145 C 203.975 308.955,210.073 296.560,212.001 292.600 C 213.928 288.640,219.506 277.300,224.395 267.400 C 229.285 257.500,234.239 247.420,235.405 245.000 C 240.922 233.551,245.039 229.654,257.157 224.411 C 269.570 219.041,271.028 218.362,273.114 216.977 C 283.086 210.356,292.859 191.486,309.668 146.400 C 313.045 137.343,313.670 135.536,313.489 135.356 C 313.394 135.260,313.005 136.041,312.625 137.091 M72.492 136.935 C 72.059 137.669,71.389 138.794,71.005 139.435 L 70.305 140.600 71.133 139.600 C 72.079 138.457,73.744 135.600,73.465 135.600 C 73.363 135.600,72.925 136.201,72.492 136.935 M25.350 143.400 C 25.351 145.820,25.416 146.758,25.496 145.485 C 25.576 144.212,25.575 142.232,25.494 141.085 C 25.414 139.938,25.349 140.980,25.350 143.400 M163.800 140.800 C 163.459 141.460,163.269 142.000,163.379 142.000 C 163.489 142.000,163.859 141.460,164.200 140.800 C 164.541 140.140,164.731 139.600,164.621 139.600 C 164.511 139.600,164.141 140.140,163.800 140.800 M57.446 142.600 C 57.091 143.150,56.509 144.095,56.153 144.700 L 55.505 145.800 56.310 144.826 C 57.260 143.676,58.521 141.600,58.269 141.600 C 58.171 141.600,57.801 142.050,57.446 142.600 M67.800 144.800 C 67.459 145.460,67.269 146.000,67.379 146.000 C 67.489 146.000,67.859 145.460,68.200 144.800 C 68.541 144.140,68.731 143.600,68.621 143.600 C 68.511 143.600,68.141 144.140,67.800 144.800 M160.600 146.400 C 160.259 147.060,160.069 147.600,160.179 147.600 C 160.289 147.600,160.659 147.060,161.000 146.400 C 161.341 145.740,161.531 145.200,161.421 145.200 C 161.311 145.200,160.941 145.740,160.600 146.400 M25.693 152.800 C 25.693 153.570,25.775 153.885,25.876 153.500 C 25.976 153.115,25.976 152.485,25.876 152.100 C 25.775 151.715,25.693 152.030,25.693 152.800 M26.101 155.800 C 26.105 156.680,26.187 156.993,26.283 156.495 C 26.379 155.998,26.375 155.278,26.275 154.895 C 26.175 154.513,26.096 154.920,26.101 155.800 M354.456 155.400 C 354.456 156.060,354.611 156.960,354.800 157.400 C 355.093 158.082,355.144 158.023,355.144 157.000 C 355.144 156.340,354.989 155.440,354.800 155.000 C 354.507 154.318,354.456 154.377,354.456 155.400 M26.487 159.000 C 26.491 159.440,26.632 160.340,26.800 161.000 C 27.074 162.078,27.106 162.098,27.113 161.200 C 27.117 160.650,26.976 159.750,26.800 159.200 C 26.549 158.416,26.481 158.373,26.487 159.000 M355.295 159.800 C 355.295 160.680,355.432 161.940,355.600 162.600 C 355.890 163.738,355.905 163.717,355.905 162.200 C 355.905 161.320,355.768 160.060,355.600 159.400 C 355.310 158.262,355.295 158.283,355.295 159.800 M148.555 164.281 C 147.707 165.316,147.222 166.034,147.477 165.876 C 148.021 165.540,150.555 162.400,150.282 162.400 C 150.180 162.400,149.403 163.247,148.555 164.281 M369.656 163.600 C 369.656 164.150,369.811 164.960,370.000 165.400 C 370.313 166.129,370.344 166.112,370.344 165.200 C 370.344 164.650,370.189 163.840,370.000 163.400 C 369.687 162.671,369.656 162.688,369.656 163.600 M356.070 165.400 C 356.057 166.280,356.195 167.720,356.377 168.600 L 356.708 170.200 356.707 168.200 C 356.706 167.100,356.568 165.660,356.400 165.000 C 356.108 163.851,356.094 163.868,356.070 165.400 M185.822 165.822 C 185.672 166.625,185.628 167.362,185.726 167.460 C 185.824 167.557,186.027 166.981,186.178 166.178 C 186.328 165.375,186.372 164.638,186.274 164.540 C 186.176 164.443,185.973 165.019,185.822 165.822 M28.244 167.400 C 28.573 168.871,28.802 169.190,28.794 168.167 C 28.791 167.745,28.605 167.130,28.382 166.800 C 28.085 166.362,28.048 166.524,28.244 167.400 M370.480 167.400 C 370.480 168.060,370.624 169.050,370.800 169.600 C 371.111 170.572,371.120 170.567,371.120 169.400 C 371.120 168.740,370.976 167.750,370.800 167.200 C 370.489 166.228,370.480 166.233,370.480 167.400 M142.987 170.842 C 141.674 172.185,139.380 174.345,137.890 175.642 C 136.399 176.939,135.348 178.000,135.553 178.000 C 135.948 178.000,145.951 168.448,145.587 168.418 C 145.471 168.408,144.301 169.499,142.987 170.842 M185.320 171.200 C 185.320 172.410,185.395 172.905,185.487 172.300 C 185.578 171.695,185.578 170.705,185.487 170.100 C 185.395 169.495,185.320 169.990,185.320 171.200 M42.475 171.819 C 41.270 174.300,41.405 174.647,42.646 172.261 C 43.201 171.194,43.587 170.253,43.503 170.170 C 43.419 170.086,42.957 170.828,42.475 171.819 M371.280 172.000 C 371.280 172.770,371.424 173.850,371.600 174.400 C 371.890 175.305,371.920 175.267,371.920 174.000 C 371.920 173.230,371.776 172.150,371.600 171.600 C 371.310 170.695,371.280 170.733,371.280 172.000 M356.906 174.400 C 356.905 176.270,357.032 179.150,357.188 180.800 C 357.468 183.773,357.471 183.761,357.500 179.400 C 357.517 176.980,357.390 174.100,357.218 173.000 C 356.937 171.194,356.907 171.330,356.906 174.400 M206.493 172.800 C 206.493 173.570,206.575 173.885,206.676 173.500 C 206.776 173.115,206.776 172.485,206.676 172.100 C 206.575 171.715,206.493 172.030,206.493 172.800 M372.095 177.200 C 372.095 178.190,372.232 179.540,372.400 180.200 C 372.673 181.273,372.705 181.209,372.705 179.600 C 372.705 178.610,372.568 177.260,372.400 176.600 C 372.127 175.527,372.095 175.591,372.095 177.200 M372.900 184.200 C 372.897 185.520,373.025 187.770,373.186 189.200 L 373.478 191.800 373.504 188.800 C 373.518 187.150,373.390 184.900,373.218 183.800 L 372.907 181.800 372.900 184.200 M35.531 183.343 C 34.865 184.198,34.861 184.198,34.209 183.400 C 33.569 182.616,33.565 182.618,33.992 183.500 C 34.232 183.995,34.574 184.400,34.752 184.400 C 35.163 184.400,36.584 182.848,36.364 182.640 C 36.274 182.555,35.899 182.871,35.531 183.343 M187.268 183.200 C 187.288 184.239,187.918 185.946,187.932 185.000 C 187.938 184.560,187.789 183.840,187.600 183.400 C 187.389 182.910,187.261 182.832,187.268 183.200 M125.500 184.629 C 124.005 185.440,124.096 185.778,125.600 185.000 C 126.260 184.659,126.800 184.294,126.800 184.190 C 126.800 183.932,126.757 183.947,125.500 184.629 M120.400 187.400 C 119.410 187.930,118.742 188.372,118.916 188.382 C 119.341 188.406,122.400 186.834,122.400 186.592 C 122.400 186.327,122.417 186.320,120.400 187.400 M357.070 193.937 C 356.889 197.092,356.827 199.760,356.933 199.866 C 357.263 200.196,357.664 194.356,357.529 191.200 C 357.421 188.680,357.347 189.117,357.070 193.937 M373.770 201.600 C 373.770 206.330,373.828 208.265,373.898 205.900 C 373.969 203.535,373.969 199.665,373.898 197.300 C 373.828 194.935,373.770 196.870,373.770 201.600 M93.000 197.200 C 92.496 197.417,92.422 197.544,92.800 197.544 C 93.130 197.544,93.760 197.389,94.200 197.200 C 94.704 196.983,94.778 196.856,94.400 196.856 C 94.070 196.856,93.440 197.011,93.000 197.200 M86.600 198.800 C 86.096 199.017,86.022 199.144,86.400 199.144 C 86.730 199.144,87.360 198.989,87.800 198.800 C 88.304 198.583,88.378 198.456,88.000 198.456 C 87.670 198.456,87.040 198.611,86.600 198.800 M212.870 199.400 C 212.857 199.840,212.995 200.920,213.177 201.800 C 213.455 203.145,213.508 203.209,213.507 202.200 C 213.505 200.799,212.908 198.170,212.870 199.400 M191.301 201.400 C 191.305 202.280,191.387 202.593,191.483 202.095 C 191.579 201.598,191.575 200.878,191.475 200.495 C 191.375 200.113,191.296 200.520,191.301 201.400 M356.220 203.718 C 356.045 205.213,356.000 206.533,356.118 206.652 C 356.411 206.944,356.922 202.695,356.708 201.753 C 356.613 201.339,356.394 202.223,356.220 203.718 M42.846 204.867 C 42.821 205.234,42.696 205.864,42.570 206.267 C 42.352 206.962,42.363 206.963,42.797 206.287 C 43.048 205.896,43.173 205.266,43.073 204.887 C 42.911 204.268,42.888 204.266,42.846 204.867 M191.293 206.000 C 191.293 206.770,191.375 207.085,191.476 206.700 C 191.576 206.315,191.576 205.685,191.476 205.300 C 191.375 204.915,191.293 205.230,191.293 206.000 M61.188 208.022 C 60.946 208.474,60.807 209.022,60.880 209.239 C 60.952 209.457,61.218 209.087,61.471 208.417 C 61.997 207.025,61.839 206.805,61.188 208.022 M355.465 209.000 C 347.789 259.322,313.496 305.648,268.800 326.075 C 258.038 330.993,253.394 332.773,245.470 335.015 C 244.189 335.377,243.243 335.776,243.368 335.902 C 243.494 336.027,244.272 335.922,245.098 335.668 C 245.924 335.414,247.860 334.831,249.400 334.372 C 252.264 333.518,255.660 332.313,257.800 331.393 C 258.460 331.109,259.720 330.581,260.600 330.220 C 261.480 329.859,262.920 329.262,263.800 328.893 C 272.607 325.200,287.385 316.478,296.224 309.756 C 315.622 295.005,333.701 272.514,342.811 251.800 C 343.295 250.700,344.014 249.080,344.409 248.200 C 349.742 236.322,356.606 212.334,355.922 207.965 C 355.821 207.321,355.669 207.665,355.465 209.000 M236.600 210.545 C 231.390 213.048,227.336 216.458,224.415 220.796 C 222.078 224.269,218.358 230.751,210.182 245.600 C 207.558 250.366,197.132 271.121,191.797 282.200 C 190.419 285.060,185.289 295.500,180.396 305.400 C 175.503 315.300,169.476 327.540,167.001 332.600 C 164.527 337.660,159.599 347.699,156.051 354.909 C 152.503 362.119,149.600 368.342,149.600 368.738 C 149.600 369.456,156.861 371.673,157.411 371.123 C 157.530 371.004,156.067 370.535,154.161 370.081 C 152.255 369.627,150.520 369.080,150.305 368.865 C 149.885 368.445,150.008 368.182,161.809 344.200 C 178.063 311.167,181.552 304.073,186.694 293.600 C 199.609 267.299,208.006 250.430,209.293 248.200 C 210.056 246.880,211.450 244.360,212.392 242.600 C 215.394 236.991,220.090 228.636,220.858 227.538 C 221.266 226.954,221.600 226.366,221.600 226.231 C 221.600 225.560,226.919 218.015,228.276 216.761 C 232.042 213.281,236.251 210.754,240.526 209.407 C 241.809 209.002,241.967 208.872,241.200 208.848 C 240.650 208.830,238.580 209.594,236.600 210.545 M41.050 212.050 C 40.717 213.717,41.040 214.040,41.400 212.400 C 41.552 211.709,41.593 211.059,41.491 210.958 C 41.389 210.856,41.191 211.347,41.050 212.050 M373.100 213.159 C 372.935 214.566,372.821 216.546,372.847 217.559 L 372.894 219.400 373.261 217.200 C 373.463 215.990,373.577 214.010,373.514 212.800 L 373.400 210.600 373.100 213.159 M372.193 221.714 C 372.044 222.913,371.998 224.233,372.092 224.647 C 372.187 225.061,372.406 224.177,372.580 222.682 C 372.755 221.187,372.800 219.867,372.682 219.748 C 372.563 219.630,372.343 220.514,372.193 221.714 M57.072 225.804 C 56.927 226.682,56.829 227.940,56.853 228.600 C 56.878 229.260,57.055 228.720,57.248 227.400 C 57.640 224.715,57.485 223.307,57.072 225.804 M371.419 227.318 C 371.245 228.374,371.204 229.337,371.326 229.459 C 371.636 229.770,372.111 227.042,371.904 226.140 C 371.810 225.733,371.592 226.263,371.419 227.318 M38.101 229.400 C 38.105 230.280,38.187 230.593,38.283 230.095 C 38.379 229.598,38.375 228.878,38.275 228.495 C 38.175 228.113,38.096 228.520,38.101 229.400 M370.582 231.782 C 370.429 232.802,370.402 233.735,370.522 233.855 C 370.642 233.975,370.865 233.239,371.018 232.218 C 371.171 231.198,371.198 230.265,371.078 230.145 C 370.958 230.025,370.735 230.761,370.582 231.782 M56.514 233.000 C 56.517 234.100,56.595 234.503,56.687 233.895 C 56.779 233.286,56.777 232.386,56.682 231.895 C 56.587 231.403,56.511 231.900,56.514 233.000 M203.800 234.661 C 203.464 235.465,203.282 236.215,203.395 236.328 C 203.508 236.441,203.600 236.435,203.600 236.316 C 203.600 236.196,203.872 235.446,204.205 234.649 C 204.538 233.852,204.721 233.200,204.611 233.200 C 204.501 233.200,204.136 233.858,203.800 234.661 M369.063 238.800 C 368.448 241.330,367.571 244.619,367.114 246.108 C 366.657 247.598,366.383 248.916,366.505 249.038 C 366.895 249.428,370.515 235.878,370.304 234.819 C 370.236 234.479,369.678 236.270,369.063 238.800 M37.328 237.600 C 37.328 239.030,37.401 239.615,37.489 238.900 C 37.578 238.185,37.578 237.015,37.489 236.300 C 37.401 235.585,37.328 236.170,37.328 237.600 M56.146 239.800 C 56.147 242.000,56.214 242.849,56.295 241.687 C 56.376 240.524,56.376 238.724,56.293 237.687 C 56.211 236.649,56.145 237.600,56.146 239.800 M36.965 247.400 C 36.966 251.360,37.026 252.926,37.098 250.880 C 37.171 248.834,37.171 245.594,37.098 243.680 C 37.024 241.766,36.965 243.440,36.965 247.400 M200.600 241.861 C 200.264 242.665,200.082 243.415,200.195 243.528 C 200.308 243.641,200.400 243.635,200.400 243.516 C 200.400 243.396,200.672 242.646,201.005 241.849 C 201.338 241.052,201.521 240.400,201.411 240.400 C 201.301 240.400,200.936 241.058,200.600 241.861 M174.800 243.200 C 174.134 244.520,173.678 245.600,173.788 245.600 C 173.898 245.600,174.534 244.520,175.200 243.200 C 175.866 241.880,176.322 240.800,176.212 240.800 C 176.102 240.800,175.466 241.880,174.800 243.200 M56.520 246.800 C 56.520 248.010,56.595 248.505,56.687 247.900 C 56.778 247.295,56.778 246.305,56.687 245.700 C 56.595 245.095,56.520 245.590,56.520 246.800 M364.891 253.294 C 363.086 258.728,362.046 261.539,360.964 263.912 C 360.434 265.073,360.000 266.110,360.000 266.216 C 360.000 266.411,359.139 268.381,357.299 272.400 C 355.963 275.316,352.285 282.672,351.235 284.525 C 349.691 287.252,348.918 288.589,347.677 290.682 C 335.153 311.797,312.400 335.140,292.600 347.189 C 291.060 348.126,288.540 349.659,287.000 350.595 C 281.027 354.228,266.556 361.600,265.398 361.600 C 265.300 361.600,264.061 362.131,262.644 362.780 C 256.460 365.612,238.675 370.858,230.600 372.230 C 229.720 372.380,229.243 372.590,229.539 372.698 C 230.493 373.043,236.226 371.716,246.600 368.750 C 302.248 352.840,349.251 306.774,365.868 251.861 C 366.926 248.364,366.151 249.501,364.891 253.294 M56.893 251.600 C 56.893 252.370,56.975 252.685,57.076 252.300 C 57.176 251.915,57.176 251.285,57.076 250.900 C 56.975 250.515,56.893 250.830,56.893 251.600 M37.324 257.400 C 37.326 258.720,37.401 259.212,37.490 258.493 C 37.579 257.774,37.577 256.694,37.486 256.093 C 37.395 255.492,37.322 256.080,37.324 257.400 M192.400 259.200 C 191.951 260.080,191.674 260.800,191.784 260.800 C 191.894 260.800,192.351 260.080,192.800 259.200 C 193.249 258.320,193.526 257.600,193.416 257.600 C 193.306 257.600,192.849 258.320,192.400 259.200 M58.468 260.600 C 58.462 261.040,58.611 261.760,58.800 262.200 C 59.238 263.219,59.238 262.168,58.800 260.800 C 58.543 259.996,58.477 259.957,58.468 260.600 M38.101 265.400 C 38.105 266.280,38.187 266.593,38.283 266.095 C 38.379 265.598,38.375 264.878,38.275 264.495 C 38.175 264.113,38.096 264.520,38.101 265.400 M186.200 271.200 C 185.859 271.860,185.669 272.400,185.779 272.400 C 185.889 272.400,186.259 271.860,186.600 271.200 C 186.941 270.540,187.131 270.000,187.021 270.000 C 186.911 270.000,186.541 270.540,186.200 271.200 M158.400 275.200 C 157.951 276.080,157.674 276.800,157.784 276.800 C 157.894 276.800,158.351 276.080,158.800 275.200 C 159.249 274.320,159.526 273.600,159.416 273.600 C 159.306 273.600,158.849 274.320,158.400 275.200 M40.056 276.400 C 40.056 276.730,40.211 277.360,40.400 277.800 C 40.617 278.304,40.744 278.378,40.744 278.000 C 40.744 277.670,40.589 277.040,40.400 276.600 C 40.183 276.096,40.056 276.022,40.056 276.400 M40.856 279.600 C 40.856 279.930,41.011 280.560,41.200 281.000 C 41.417 281.504,41.544 281.578,41.544 281.200 C 41.544 280.870,41.389 280.240,41.200 279.800 C 40.983 279.296,40.856 279.222,40.856 279.600 M176.400 290.400 C 175.951 291.280,175.674 292.000,175.784 292.000 C 175.894 292.000,176.351 291.280,176.800 290.400 C 177.249 289.520,177.526 288.800,177.416 288.800 C 177.306 288.800,176.849 289.520,176.400 290.400 M75.899 295.000 C 76.801 296.100,78.764 298.170,80.262 299.600 C 82.485 301.723,82.329 301.503,79.412 298.400 C 74.469 293.142,74.018 292.706,75.899 295.000 M170.200 302.400 C 169.859 303.060,169.669 303.600,169.779 303.600 C 169.889 303.600,170.259 303.060,170.600 302.400 C 170.941 301.740,171.131 301.200,171.021 301.200 C 170.911 301.200,170.541 301.740,170.200 302.400 M139.986 306.700 L 137.800 309.000 140.100 306.814 C 142.237 304.782,142.583 304.400,142.286 304.400 C 142.224 304.400,141.189 305.435,139.986 306.700 M52.212 306.000 C 52.942 307.329,56.438 312.400,56.624 312.400 C 56.847 312.400,52.924 306.431,52.287 305.800 C 52.015 305.531,51.991 305.597,52.212 306.000 M59.800 316.400 C 60.659 317.280,61.452 318.000,61.562 318.000 C 61.672 318.000,61.059 317.280,60.200 316.400 C 59.341 315.520,58.548 314.800,58.438 314.800 C 58.328 314.800,58.941 315.520,59.800 316.400 M124.400 315.600 C 123.576 315.864,123.541 315.926,124.200 315.954 C 124.640 315.973,125.270 315.813,125.600 315.600 C 126.301 315.147,125.814 315.147,124.400 315.600 M111.117 316.472 C 111.983 316.817,120.691 316.807,121.926 316.460 C 122.436 316.317,120.058 316.200,116.643 316.200 C 113.228 316.200,110.741 316.322,111.117 316.472 M64.486 321.398 C 65.743 322.698,66.829 323.681,66.900 323.581 C 66.971 323.482,65.943 322.417,64.615 321.217 L 62.200 319.033 64.486 321.398 M159.200 324.000 C 158.534 325.320,158.078 326.400,158.188 326.400 C 158.298 326.400,158.934 325.320,159.600 324.000 C 160.266 322.680,160.722 321.600,160.612 321.600 C 160.502 321.600,159.866 322.680,159.200 324.000 M71.600 327.346 C 71.600 327.456,72.140 327.930,72.800 328.400 C 73.460 328.870,74.000 329.164,74.000 329.054 C 74.000 328.944,73.460 328.470,72.800 328.000 C 72.140 327.530,71.600 327.236,71.600 327.346 M156.600 328.800 C 156.259 329.460,156.069 330.000,156.179 330.000 C 156.289 330.000,156.659 329.460,157.000 328.800 C 157.341 328.140,157.531 327.600,157.421 327.600 C 157.311 327.600,156.941 328.140,156.600 328.800 M154.399 332.100 C 153.810 332.904,153.713 333.184,154.145 332.833 C 154.801 332.300,155.793 330.800,155.489 330.800 C 155.413 330.800,154.922 331.385,154.399 332.100 M77.469 331.632 C 77.966 332.233,80.400 333.764,80.400 333.476 C 80.400 333.383,79.635 332.802,78.700 332.185 C 77.765 331.568,77.211 331.320,77.469 331.632 M150.390 336.680 C 148.745 338.374,148.210 339.049,149.200 338.180 C 150.983 336.615,153.838 333.600,153.536 333.600 C 153.450 333.600,152.034 334.986,150.390 336.680 M240.800 336.400 C 240.303 336.721,240.338 336.788,241.000 336.788 C 241.440 336.788,242.070 336.613,242.400 336.400 C 242.897 336.079,242.862 336.012,242.200 336.012 C 241.760 336.012,241.130 336.187,240.800 336.400 M237.800 337.200 C 237.067 337.515,237.084 337.546,238.000 337.566 C 238.550 337.578,239.270 337.413,239.600 337.200 C 240.387 336.691,238.984 336.691,237.800 337.200 M87.200 337.398 C 87.200 337.666,92.049 340.085,92.228 339.906 C 92.308 339.825,91.210 339.185,89.787 338.483 C 88.364 337.782,87.200 337.293,87.200 337.398 M234.200 338.000 C 233.471 338.313,233.488 338.344,234.400 338.344 C 234.950 338.344,235.760 338.189,236.200 338.000 C 236.929 337.687,236.912 337.656,236.000 337.656 C 235.450 337.656,234.640 337.811,234.200 338.000 M230.400 338.800 C 229.425 339.112,229.430 339.121,230.600 339.132 C 231.260 339.138,232.160 338.989,232.600 338.800 C 233.694 338.330,231.867 338.330,230.400 338.800 M226.000 339.600 C 225.028 339.911,225.033 339.920,226.200 339.920 C 226.860 339.920,227.850 339.776,228.400 339.600 C 229.372 339.289,229.367 339.280,228.200 339.280 C 227.540 339.280,226.550 339.424,226.000 339.600 M220.600 340.400 C 219.462 340.690,219.483 340.705,221.000 340.705 C 221.880 340.705,223.140 340.568,223.800 340.400 C 224.938 340.110,224.917 340.095,223.400 340.095 C 222.520 340.095,221.260 340.232,220.600 340.400 M212.200 341.200 L 209.800 341.466 212.800 341.503 C 214.450 341.524,216.610 341.397,217.600 341.220 L 219.400 340.900 217.000 340.917 C 215.680 340.927,213.520 341.054,212.200 341.200 M196.400 341.997 C 198.710 342.146,202.490 342.145,204.800 341.994 C 208.211 341.772,207.423 341.721,200.600 341.723 C 193.780 341.725,192.990 341.776,196.400 341.997 M141.200 343.200 C 140.430 343.622,139.944 343.974,140.120 343.983 C 140.544 344.005,142.800 342.832,142.800 342.590 C 142.800 342.328,142.777 342.337,141.200 343.200 M117.705 347.087 C 118.314 347.179,119.214 347.177,119.705 347.082 C 120.197 346.987,119.700 346.911,118.600 346.914 C 117.500 346.917,117.097 346.995,117.705 347.087 M158.800 371.600 C 160.267 372.070,162.094 372.070,161.000 371.600 C 160.560 371.411,159.660 371.262,159.000 371.268 C 157.830 371.279,157.825 371.288,158.800 371.600 M162.800 372.400 C 164.267 372.870,166.094 372.870,165.000 372.400 C 164.560 372.211,163.660 372.062,163.000 372.068 C 161.830 372.079,161.825 372.088,162.800 372.400 M166.800 373.200 C 167.350 373.376,168.340 373.520,169.000 373.520 C 170.167 373.520,170.172 373.511,169.200 373.200 C 168.650 373.024,167.660 372.880,167.000 372.880 C 165.833 372.880,165.828 372.889,166.800 373.200 M225.200 373.200 C 224.295 373.490,224.333 373.520,225.600 373.520 C 226.370 373.520,227.450 373.376,228.000 373.200 C 228.905 372.910,228.867 372.880,227.600 372.880 C 226.830 372.880,225.750 373.024,225.200 373.200 M171.400 374.000 C 172.060 374.168,173.410 374.306,174.400 374.307 L 176.200 374.308 174.600 373.977 C 173.720 373.795,172.370 373.657,171.600 373.670 L 170.200 373.695 171.400 374.000 M219.400 374.000 C 218.323 374.274,218.384 374.306,220.000 374.313 C 220.990 374.317,222.250 374.176,222.800 374.000 C 224.169 373.561,221.123 373.561,219.400 374.000 M178.600 374.823 C 179.480 375.005,181.100 375.144,182.200 375.131 L 184.200 375.108 182.600 374.777 C 181.720 374.595,180.100 374.456,179.000 374.469 L 177.000 374.492 178.600 374.823 M212.200 374.800 C 210.641 375.079,210.656 375.087,212.800 375.120 C 214.010 375.139,215.720 375.005,216.600 374.823 C 218.765 374.375,214.691 374.354,212.200 374.800 M191.300 375.499 C 194.765 375.566,200.435 375.566,203.900 375.499 C 207.365 375.433,204.530 375.378,197.600 375.378 C 190.670 375.378,187.835 375.433,191.300 375.499 " stroke="none" fill="#d3d3ac" fill-rule="evenodd"></path><path id="path4" d="M185.305 24.687 C 185.914 24.779,186.814 24.777,187.305 24.682 C 187.797 24.587,187.300 24.511,186.200 24.514 C 185.100 24.517,184.697 24.595,185.305 24.687 M170.200 25.212 C 169.320 25.377,170.940 25.417,173.800 25.302 C 176.660 25.187,179.075 25.027,179.167 24.946 C 179.469 24.681,171.833 24.907,170.200 25.212 M193.233 24.952 C 193.325 25.036,195.200 25.205,197.400 25.327 C 199.765 25.459,200.910 25.416,200.200 25.223 C 199.009 24.897,192.914 24.661,193.233 24.952 M163.600 26.000 L 162.600 26.320 163.600 26.337 C 164.150 26.346,165.320 26.205,166.200 26.023 L 167.800 25.692 166.200 25.686 C 165.320 25.683,164.150 25.824,163.600 26.000 M203.400 26.023 C 205.649 26.488,207.305 26.475,206.200 26.000 C 205.760 25.811,204.590 25.664,203.600 25.674 L 201.800 25.692 203.400 26.023 M158.600 26.800 L 157.800 27.144 158.600 27.149 C 159.040 27.152,160.120 27.005,161.000 26.823 L 162.600 26.492 161.000 26.474 C 160.120 26.464,159.040 26.611,158.600 26.800 M207.800 26.800 C 208.984 27.309,210.387 27.309,209.600 26.800 C 209.270 26.587,208.550 26.422,208.000 26.434 C 207.084 26.454,207.067 26.485,207.800 26.800 M154.200 27.600 C 153.136 28.057,154.803 28.057,156.600 27.600 L 157.800 27.295 156.400 27.275 C 155.630 27.265,154.640 27.411,154.200 27.600 M214.981 28.797 C 217.611 29.663,219.846 30.288,219.948 30.186 C 220.050 30.083,220.056 30.000,219.963 30.000 C 219.869 30.000,217.994 29.372,215.796 28.604 C 213.598 27.836,211.440 27.212,211.000 27.216 C 210.560 27.220,212.352 27.932,214.981 28.797 M149.000 28.736 C 147.680 29.082,146.870 29.415,147.200 29.478 C 147.530 29.540,149.060 29.250,150.600 28.832 C 152.140 28.414,152.950 28.080,152.400 28.090 C 151.850 28.100,150.320 28.391,149.000 28.736 M143.053 30.230 C 141.982 30.522,140.992 30.881,140.853 31.027 C 140.552 31.344,142.736 30.901,144.991 30.188 C 147.116 29.516,145.546 29.550,143.053 30.230 M138.400 31.600 C 137.605 32.114,138.604 32.114,139.800 31.600 L 140.600 31.256 139.800 31.234 C 139.360 31.222,138.730 31.387,138.400 31.600 M222.800 31.622 C 223.130 31.847,224.120 32.408,225.000 32.868 C 227.249 34.044,230.800 36.424,230.800 36.754 C 230.800 36.906,228.955 38.494,226.700 40.283 C 219.011 46.383,210.570 55.573,203.861 65.149 C 198.464 72.852,189.270 88.203,189.760 88.693 C 189.856 88.790,190.156 88.448,190.425 87.934 C 195.679 77.923,207.235 59.989,209.973 57.600 C 210.099 57.490,211.530 55.820,213.153 53.890 C 216.857 49.484,223.553 43.108,227.872 39.875 C 229.690 38.514,231.181 37.130,231.185 36.800 C 231.193 36.212,227.957 33.926,224.553 32.114 C 222.809 31.185,221.707 30.876,222.800 31.622 M135.600 32.400 C 134.805 32.914,135.804 32.914,137.000 32.400 L 137.800 32.056 137.000 32.034 C 136.560 32.022,135.930 32.187,135.600 32.400 M133.200 33.200 C 132.667 33.545,132.667 33.588,133.200 33.588 C 133.530 33.588,134.070 33.413,134.400 33.200 C 134.933 32.855,134.933 32.812,134.400 32.812 C 134.070 32.812,133.530 32.987,133.200 33.200 M127.309 34.972 C 125.280 35.674,123.480 36.394,123.309 36.574 C 122.945 36.957,123.368 36.834,128.620 35.029 C 130.809 34.276,132.240 33.669,131.800 33.678 C 131.360 33.688,129.339 34.270,127.309 34.972 M121.200 37.200 C 120.667 37.545,120.667 37.588,121.200 37.588 C 121.530 37.588,122.070 37.413,122.400 37.200 C 122.933 36.855,122.933 36.812,122.400 36.812 C 122.070 36.812,121.530 36.987,121.200 37.200 M118.980 37.940 C 118.771 38.128,117.430 38.743,116.000 39.309 C 112.163 40.825,109.513 42.046,109.685 42.219 C 109.830 42.364,120.012 38.122,120.364 37.770 C 120.694 37.440,119.354 37.605,118.980 37.940 M101.600 45.936 C 97.750 47.879,93.925 49.858,93.100 50.334 C 92.275 50.810,91.015 51.535,90.300 51.944 C 86.811 53.941,84.484 55.394,80.590 58.006 C 78.256 59.573,76.043 61.105,75.673 61.411 C 75.303 61.717,73.821 62.830,72.381 63.884 C 65.125 69.192,55.124 78.486,49.842 84.830 C 48.116 86.903,46.320 89.050,45.851 89.600 C 40.560 95.811,29.806 115.217,30.501 117.302 C 30.574 117.522,31.147 116.374,31.774 114.751 C 42.004 88.274,65.934 64.764,101.000 46.741 C 105.620 44.366,109.220 42.419,109.000 42.413 C 108.780 42.407,105.450 43.992,101.600 45.936 M142.000 66.000 C 141.600 66.258,141.567 66.390,141.900 66.394 C 142.848 66.405,142.393 67.003,140.551 68.167 C 137.926 69.825,127.234 77.866,120.200 83.472 C 119.760 83.822,118.320 85.030,117.000 86.155 C 115.680 87.280,114.062 88.650,113.404 89.200 C 109.647 92.341,99.805 102.079,95.200 107.211 C 93.330 109.295,91.701 111.090,91.581 111.200 C 90.962 111.765,84.467 120.006,82.370 122.887 C 72.823 136.002,64.060 151.067,57.230 166.110 C 54.614 171.873,56.227 168.995,60.542 160.200 C 76.469 127.741,97.460 101.412,123.153 81.669 C 127.965 77.971,139.828 69.110,141.989 67.600 C 144.369 65.936,144.380 64.462,142.000 66.000 M138.875 67.073 C 137.926 67.409,137.238 67.771,137.345 67.878 C 137.569 68.102,140.410 67.196,140.980 66.718 C 141.533 66.255,140.874 66.366,138.875 67.073 M238.635 71.708 C 234.436 78.197,229.205 86.340,225.600 92.000 C 223.988 94.530,222.035 97.590,221.260 98.800 C 219.909 100.908,218.374 103.367,214.000 110.429 C 212.900 112.206,212.000 113.748,212.000 113.857 C 212.000 113.967,211.460 114.841,210.800 115.800 C 210.140 116.759,209.600 117.664,209.600 117.810 C 209.600 117.957,209.261 118.554,208.847 119.138 C 208.433 119.722,207.736 120.830,207.298 121.600 C 206.861 122.370,205.513 124.710,204.303 126.800 C 196.224 140.756,186.369 161.302,187.305 162.238 C 187.406 162.339,187.965 161.080,188.547 159.440 C 193.027 146.820,205.726 123.935,225.192 93.400 C 234.998 78.018,241.379 68.139,241.821 67.656 C 242.234 67.203,243.110 67.521,247.032 69.549 C 249.625 70.890,251.822 71.912,251.914 71.819 C 252.006 71.727,250.849 71.024,249.341 70.257 C 247.833 69.489,245.700 68.399,244.600 67.833 C 241.874 66.430,242.176 66.234,238.635 71.708 M129.186 71.519 C 115.718 78.303,104.743 86.526,91.175 100.000 C 84.289 106.838,81.740 109.636,74.173 118.660 C 65.457 129.055,56.490 142.703,50.339 154.939 C 47.702 160.185,45.619 164.552,45.711 164.645 C 45.803 164.737,47.977 160.588,50.541 155.424 C 56.935 142.551,66.194 128.644,76.253 116.804 C 87.311 103.788,94.446 96.650,105.800 87.243 C 110.546 83.311,119.202 77.328,124.200 74.526 C 127.316 72.779,135.504 68.800,135.982 68.800 C 136.186 68.800,136.464 68.620,136.600 68.400 C 137.080 67.623,136.102 68.035,129.186 71.519 M252.533 72.518 C 252.532 72.783,251.332 75.236,249.866 77.969 C 248.400 80.702,247.200 83.033,247.200 83.149 C 247.200 83.699,248.085 82.263,250.004 78.600 C 251.157 76.400,252.230 74.420,252.388 74.200 C 252.926 73.453,253.166 72.426,252.849 72.230 C 252.675 72.123,252.533 72.252,252.533 72.518 M244.341 88.269 C 241.557 93.440,241.286 94.012,241.905 93.400 C 242.127 93.180,243.257 91.200,244.416 89.000 C 245.575 86.800,246.701 84.771,246.918 84.490 C 247.136 84.210,247.217 83.883,247.098 83.764 C 246.979 83.645,245.738 85.672,244.341 88.269 M183.400 100.800 C 180.185 107.228,177.622 112.556,177.706 112.639 C 177.789 112.723,180.483 107.528,183.691 101.096 C 186.900 94.663,189.462 89.335,189.385 89.256 C 189.309 89.177,186.615 94.372,183.400 100.800 M239.038 98.038 C 237.804 100.287,236.871 102.205,236.965 102.298 C 237.059 102.392,237.356 102.048,237.625 101.534 C 239.331 98.284,240.973 95.328,241.315 94.890 C 241.535 94.610,241.616 94.283,241.497 94.164 C 241.378 94.045,240.271 95.788,239.038 98.038 M234.575 106.278 C 233.523 108.215,232.324 110.406,231.911 111.147 C 231.498 111.888,231.238 112.572,231.333 112.667 C 231.428 112.762,232.314 111.346,233.302 109.520 C 234.290 107.694,235.490 105.504,235.969 104.653 C 236.448 103.802,236.760 103.027,236.664 102.931 C 236.568 102.834,235.628 104.341,234.575 106.278 M227.025 120.625 C 224.898 124.731,223.236 128.169,223.330 128.264 C 223.425 128.358,224.903 125.683,226.615 122.318 C 228.327 118.953,230.068 115.594,230.483 114.853 C 230.899 114.112,231.161 113.428,231.065 113.332 C 230.969 113.236,229.151 116.518,227.025 120.625 M170.642 126.710 C 155.069 158.060,142.664 174.040,126.487 183.588 C 124.885 184.533,123.647 185.380,123.737 185.470 C 124.160 185.893,132.924 180.066,136.256 177.146 C 146.086 168.531,153.320 159.210,161.983 143.995 C 166.263 136.480,176.223 116.890,175.919 116.586 C 175.828 116.495,173.453 121.050,170.642 126.710 M29.867 118.267 C 29.720 118.413,29.611 118.908,29.625 119.367 C 29.649 120.133,29.682 120.123,30.034 119.242 C 30.426 118.263,30.344 117.789,29.867 118.267 M28.616 122.606 C 28.253 123.852,28.020 125.060,28.097 125.292 C 28.174 125.523,28.551 124.584,28.935 123.205 C 29.318 121.827,29.551 120.618,29.453 120.519 C 29.354 120.421,28.978 121.360,28.616 122.606 M27.378 127.378 C 27.227 128.181,27.194 128.927,27.304 129.037 C 27.414 129.147,27.627 128.581,27.778 127.778 C 27.928 126.975,27.962 126.228,27.852 126.118 C 27.742 126.008,27.528 126.575,27.378 127.378 M221.461 131.861 C 220.636 133.529,220.036 134.969,220.129 135.062 C 220.221 135.154,220.954 133.847,221.757 132.157 C 222.559 130.466,223.159 129.026,223.089 128.956 C 223.019 128.885,222.286 130.193,221.461 131.861 M26.689 130.400 C 26.536 130.950,26.428 132.030,26.449 132.800 C 26.486 134.146,26.501 134.131,26.847 132.400 C 27.251 130.377,27.128 128.823,26.689 130.400 M25.857 136.300 C 25.530 138.276,25.584 150.501,25.930 152.800 C 26.079 153.790,26.200 150.145,26.200 144.700 C 26.200 139.255,26.179 134.800,26.152 134.800 C 26.126 134.800,25.993 135.475,25.857 136.300 M217.853 139.653 C 216.824 141.887,216.071 143.804,216.180 143.913 C 216.289 144.022,216.544 143.681,216.748 143.155 C 216.952 142.630,217.776 140.784,218.580 139.054 C 219.384 137.323,219.970 135.837,219.883 135.750 C 219.796 135.663,218.883 137.419,217.853 139.653 M215.018 145.818 C 214.672 146.646,214.471 147.405,214.571 147.505 C 214.671 147.605,215.036 147.009,215.382 146.182 C 215.728 145.354,215.929 144.595,215.829 144.495 C 215.729 144.395,215.364 144.991,215.018 145.818 M212.794 151.076 C 211.178 154.958,210.351 157.284,210.525 157.458 C 210.598 157.532,211.497 155.490,212.521 152.921 C 213.546 150.352,214.318 148.185,214.238 148.105 C 214.158 148.024,213.508 149.362,212.794 151.076 M26.486 156.600 C 26.483 157.480,26.624 158.650,26.800 159.200 L 27.120 160.200 27.137 159.200 C 27.146 158.650,27.005 157.480,26.823 156.600 L 26.492 155.000 26.486 156.600 M209.400 160.000 C 209.025 161.129,208.804 162.137,208.908 162.241 C 209.012 162.346,209.401 161.504,209.771 160.371 C 210.142 159.239,210.363 158.230,210.263 158.130 C 210.163 158.030,209.775 158.871,209.400 160.000 M27.249 161.200 C 27.226 162.318,28.221 166.754,28.573 167.107 C 28.908 167.441,28.831 166.930,28.012 163.400 C 27.604 161.640,27.260 160.650,27.249 161.200 M186.649 163.415 C 186.512 163.773,186.416 164.456,186.436 164.933 C 186.462 165.547,186.585 165.408,186.859 164.456 C 187.257 163.072,187.094 162.258,186.649 163.415 M208.200 163.600 C 208.050 164.073,208.017 164.550,208.127 164.660 C 208.237 164.770,208.450 164.473,208.600 164.000 C 208.750 163.527,208.783 163.050,208.673 162.940 C 208.563 162.830,208.350 163.127,208.200 163.600 M207.400 166.400 C 207.248 167.091,207.214 167.747,207.324 167.857 C 207.434 167.967,207.648 167.491,207.800 166.800 C 207.952 166.109,207.986 165.453,207.876 165.343 C 207.766 165.233,207.552 165.709,207.400 166.400 M185.850 167.250 C 185.536 168.822,185.607 174.605,185.961 176.200 C 186.107 176.860,186.221 174.835,186.213 171.700 C 186.199 165.413,186.204 165.480,185.850 167.250 M41.503 172.910 C 38.532 178.843,35.375 183.755,34.771 183.382 C 34.607 183.280,33.787 181.468,32.951 179.354 C 32.114 177.240,31.376 175.672,31.311 175.868 C 31.184 176.248,33.476 182.055,34.284 183.400 C 34.756 184.186,34.780 184.183,35.702 183.200 C 37.908 180.848,45.272 167.539,44.690 166.957 C 44.614 166.881,43.180 169.560,41.503 172.910 M28.856 168.200 C 28.856 168.640,29.011 169.360,29.200 169.800 L 29.544 170.600 29.544 169.800 C 29.544 169.360,29.389 168.640,29.200 168.200 L 28.856 167.400 28.856 168.200 M206.578 169.778 C 206.427 170.581,206.404 171.337,206.526 171.460 C 206.648 171.582,206.872 171.025,207.022 170.222 C 207.173 169.419,207.196 168.663,207.074 168.540 C 206.952 168.418,206.728 168.975,206.578 169.778 M55.187 170.645 C 54.947 171.280,54.492 172.323,54.175 172.961 C 53.859 173.600,53.613 174.320,53.630 174.561 C 53.646 174.803,54.189 173.849,54.837 172.441 C 55.485 171.034,55.927 169.794,55.819 169.686 C 55.711 169.578,55.426 170.009,55.187 170.645 M29.612 171.200 C 29.612 171.530,29.787 172.070,30.000 172.400 C 30.345 172.933,30.388 172.933,30.388 172.400 C 30.388 172.070,30.213 171.530,30.000 171.200 C 29.655 170.667,29.612 170.667,29.612 171.200 M205.854 173.856 C 205.523 176.273,205.566 179.003,205.968 181.000 C 206.197 182.140,206.295 181.075,206.308 177.300 C 206.329 171.582,206.249 170.977,205.854 173.856 M30.412 173.600 C 30.412 173.930,30.587 174.470,30.800 174.800 C 31.145 175.333,31.188 175.333,31.188 174.800 C 31.188 174.470,31.013 173.930,30.800 173.600 C 30.455 173.067,30.412 173.067,30.412 173.600 M186.468 178.400 C 186.462 178.950,186.611 179.760,186.800 180.200 L 187.144 181.000 187.132 180.200 C 187.126 179.760,186.976 178.950,186.800 178.400 L 186.480 177.400 186.468 178.400 M51.371 179.843 C 51.235 180.259,50.758 181.551,50.310 182.714 C 49.862 183.877,49.586 184.919,49.696 185.029 C 49.806 185.139,50.375 183.938,50.960 182.360 C 51.545 180.782,51.933 179.399,51.821 179.288 C 51.710 179.177,51.508 179.426,51.371 179.843 M187.256 181.800 C 187.256 182.240,187.411 182.960,187.600 183.400 L 187.944 184.200 187.944 183.400 C 187.944 182.960,187.789 182.240,187.600 181.800 L 187.256 181.000 187.256 181.800 M206.423 183.250 C 206.376 184.568,210.665 194.668,211.092 194.242 C 211.179 194.155,210.577 192.669,209.755 190.942 C 208.932 189.214,207.851 186.630,207.353 185.200 C 206.855 183.770,206.436 182.892,206.423 183.250 M188.056 185.000 C 188.056 185.440,188.211 186.160,188.400 186.600 L 188.744 187.400 188.744 186.600 C 188.744 186.160,188.589 185.440,188.400 185.000 L 188.056 184.200 188.056 185.000 M49.000 186.400 C 48.850 186.873,48.817 187.350,48.927 187.460 C 49.037 187.570,49.250 187.273,49.400 186.800 C 49.550 186.327,49.583 185.850,49.473 185.740 C 49.363 185.630,49.150 185.927,49.000 186.400 M119.893 187.120 C 118.404 187.889,117.260 188.594,117.352 188.685 C 117.546 188.879,123.200 186.085,123.200 185.795 C 123.200 185.469,122.710 185.665,119.893 187.120 M188.812 187.707 C 188.805 187.876,189.140 189.316,189.556 190.907 C 189.971 192.498,190.444 194.520,190.607 195.400 C 190.769 196.280,190.987 196.766,191.091 196.480 C 191.293 195.925,189.715 189.003,189.158 188.000 C 188.974 187.670,188.819 187.538,188.812 187.707 M48.200 188.800 C 48.050 189.273,48.017 189.750,48.127 189.860 C 48.237 189.970,48.450 189.673,48.600 189.200 C 48.750 188.727,48.783 188.250,48.673 188.140 C 48.563 188.030,48.350 188.327,48.200 188.800 M113.800 190.000 C 112.480 190.626,111.591 191.153,111.825 191.169 C 112.059 191.186,112.995 190.840,113.906 190.400 C 114.816 189.960,115.739 189.600,115.957 189.600 C 116.175 189.600,116.464 189.420,116.600 189.200 C 116.973 188.597,116.432 188.751,113.800 190.000 M47.438 190.843 C 47.339 191.149,46.885 192.492,46.429 193.827 C 45.973 195.161,45.614 196.511,45.630 196.827 C 45.647 197.142,46.185 195.883,46.826 194.029 C 47.468 192.176,47.908 190.575,47.806 190.472 C 47.703 190.370,47.538 190.536,47.438 190.843 M107.675 192.273 C 106.066 192.829,104.834 193.368,104.938 193.471 C 105.158 193.691,110.425 191.993,110.980 191.522 C 111.584 191.010,110.847 191.178,107.675 192.273 M100.255 194.738 C 96.485 195.836,95.989 196.411,99.635 195.457 C 101.752 194.903,104.993 193.645,104.200 193.686 C 103.980 193.697,102.205 194.171,100.255 194.738 M211.474 195.600 C 211.620 196.150,211.977 197.500,212.269 198.600 C 212.773 200.503,212.791 200.523,212.646 199.000 C 212.563 198.120,212.205 196.770,211.851 196.000 C 211.485 195.203,211.323 195.031,211.474 195.600 M94.600 196.400 L 93.800 196.744 94.600 196.766 C 95.040 196.778,95.670 196.613,96.000 196.400 C 96.795 195.886,95.796 195.886,94.600 196.400 M91.400 197.200 L 90.600 197.544 91.400 197.544 C 91.840 197.544,92.560 197.389,93.000 197.200 L 93.800 196.856 93.000 196.856 C 92.560 196.856,91.840 197.011,91.400 197.200 M191.395 203.119 C 191.398 206.485,191.517 208.825,191.660 208.319 C 191.994 207.139,191.985 199.771,191.648 198.200 C 191.506 197.540,191.392 199.754,191.395 203.119 M45.000 198.400 C 44.850 198.873,44.817 199.350,44.927 199.460 C 45.037 199.570,45.250 199.273,45.400 198.800 C 45.550 198.327,45.583 197.850,45.473 197.740 C 45.363 197.630,45.150 197.927,45.000 198.400 M88.200 198.000 L 87.400 198.344 88.200 198.344 C 88.640 198.344,89.360 198.189,89.800 198.000 L 90.600 197.656 89.800 197.656 C 89.360 197.656,88.640 197.811,88.200 198.000 M80.984 199.791 C 75.134 201.355,70.680 202.813,70.944 203.078 C 71.052 203.185,72.189 202.904,73.470 202.452 C 74.752 202.000,78.316 200.982,81.392 200.190 C 84.468 199.397,87.063 198.671,87.159 198.575 C 87.556 198.177,85.527 198.577,80.984 199.791 M44.288 200.533 C 43.810 201.749,43.924 202.773,44.439 201.887 C 44.667 201.496,44.791 200.866,44.715 200.487 C 44.588 199.860,44.551 199.864,44.288 200.533 M212.934 206.000 C 212.931 209.677,213.029 210.890,213.242 209.800 C 213.640 207.760,213.642 204.258,213.246 202.200 C 213.038 201.118,212.937 202.348,212.934 206.000 M43.449 203.415 C 43.312 203.773,43.216 204.456,43.236 204.933 C 43.262 205.547,43.385 205.408,43.659 204.456 C 44.057 203.072,43.894 202.258,43.449 203.415 M66.352 204.541 C 61.667 206.586,58.742 209.676,60.154 211.088 C 60.268 211.201,60.472 210.778,60.608 210.147 C 61.110 207.816,61.529 207.381,64.892 205.700 C 66.762 204.765,68.541 203.997,68.846 203.994 C 69.151 203.991,69.670 203.813,70.000 203.600 C 71.367 202.716,69.322 203.244,66.352 204.541 M42.616 207.000 C 42.461 207.660,42.169 208.722,41.967 209.360 C 41.765 209.998,41.616 210.898,41.636 211.360 C 41.656 211.822,42.012 210.940,42.426 209.400 C 42.841 207.860,43.117 206.420,43.040 206.200 C 42.962 205.980,42.772 206.340,42.616 207.000 M190.629 210.629 C 190.481 211.215,190.451 211.784,190.561 211.894 C 190.671 212.004,190.881 211.615,191.029 211.029 C 191.176 210.442,191.206 209.873,191.096 209.763 C 190.986 209.653,190.776 210.042,190.629 210.629 M59.021 214.176 C 58.636 215.599,58.396 216.987,58.487 217.261 C 58.578 217.535,58.972 216.449,59.361 214.847 C 60.245 211.210,59.971 210.668,59.021 214.176 M212.449 212.000 C 212.416 212.330,212.289 213.050,212.167 213.600 C 211.975 214.464,212.007 214.503,212.399 213.888 C 212.648 213.497,212.775 212.777,212.681 212.288 C 212.586 211.800,212.482 211.670,212.449 212.000 M40.978 213.778 C 40.827 214.581,40.794 215.327,40.904 215.437 C 41.014 215.547,41.227 214.981,41.378 214.178 C 41.528 213.375,41.562 212.628,41.452 212.518 C 41.342 212.408,41.128 212.975,40.978 213.778 M189.002 215.298 C 188.383 216.894,185.927 222.058,183.544 226.773 C 181.162 231.488,179.289 235.423,179.383 235.516 C 179.596 235.729,188.333 218.231,189.584 215.086 C 190.090 213.813,190.420 212.687,190.316 212.583 C 190.213 212.480,189.622 213.701,189.002 215.298 M40.289 216.800 C 40.136 217.350,40.025 218.250,40.042 218.800 C 40.068 219.661,40.126 219.614,40.458 218.460 C 40.670 217.724,40.781 216.824,40.706 216.460 C 40.608 215.994,40.486 216.093,40.289 216.800 M208.384 223.067 C 205.368 230.341,205.371 230.333,205.888 229.800 C 206.101 229.580,206.693 228.320,207.203 227.000 C 207.713 225.680,208.252 224.420,208.401 224.200 C 208.922 223.428,211.301 217.167,211.135 217.002 C 211.043 216.910,209.805 219.639,208.384 223.067 M57.800 219.600 C 57.646 220.510,57.611 221.344,57.721 221.454 C 57.831 221.564,58.046 220.910,58.200 220.000 C 58.354 219.090,58.389 218.256,58.279 218.146 C 58.169 218.036,57.954 218.690,57.800 219.600 M39.388 221.738 C 39.239 222.735,39.199 223.786,39.300 224.075 C 39.400 224.364,39.618 223.643,39.782 222.474 C 39.947 221.305,39.987 220.254,39.871 220.138 C 39.755 220.022,39.538 220.742,39.388 221.738 M56.988 223.738 C 56.839 224.735,56.799 225.786,56.900 226.075 C 57.000 226.364,57.218 225.643,57.382 224.474 C 57.547 223.305,57.587 222.254,57.471 222.138 C 57.355 222.022,57.138 222.742,56.988 223.738 M38.696 225.950 C 38.533 226.693,38.420 227.953,38.444 228.750 C 38.488 230.200,38.488 230.200,38.850 228.400 C 39.050 227.410,39.163 226.150,39.102 225.600 C 39.004 224.720,38.956 224.761,38.696 225.950 M56.298 229.200 C 56.138 230.410,56.030 232.480,56.058 233.800 C 56.104 236.005,56.137 235.907,56.462 232.600 C 56.866 228.501,56.738 225.866,56.298 229.200 M204.655 231.855 C 204.276 232.649,204.053 233.386,204.159 233.493 C 204.266 233.599,204.636 233.009,204.982 232.182 C 205.798 230.229,205.549 229.980,204.655 231.855 M37.894 232.556 C 37.732 233.632,37.624 235.522,37.653 236.756 C 37.704 238.897,37.722 238.854,38.057 235.800 C 38.465 232.067,38.341 229.588,37.894 232.556 M203.055 235.455 C 202.676 236.249,202.453 236.986,202.559 237.093 C 202.666 237.199,203.036 236.609,203.382 235.782 C 204.198 233.829,203.949 233.580,203.055 235.455 M177.177 239.261 C 176.370 240.857,171.266 250.820,164.933 263.160 C 163.533 265.888,162.461 268.195,162.552 268.285 C 162.642 268.375,165.915 262.183,169.826 254.525 C 173.736 246.866,177.273 239.994,177.687 239.253 C 178.101 238.512,178.353 237.820,178.248 237.714 C 178.142 237.609,177.660 238.305,177.177 239.261 M201.455 239.055 C 201.076 239.849,200.853 240.586,200.959 240.693 C 201.066 240.799,201.436 240.209,201.782 239.382 C 202.598 237.429,202.349 237.180,201.455 239.055 M55.709 240.000 C 55.709 240.990,55.787 241.395,55.882 240.900 C 55.978 240.405,55.978 239.595,55.882 239.100 C 55.787 238.605,55.709 239.010,55.709 240.000 M37.367 247.600 C 37.367 251.890,37.426 253.645,37.498 251.500 C 37.570 249.355,37.570 245.845,37.498 243.700 C 37.426 241.555,37.367 243.310,37.367 247.600 M198.667 245.267 C 197.638 247.501,196.882 249.415,196.987 249.520 C 197.092 249.625,197.344 249.281,197.548 248.755 C 197.752 248.230,198.576 246.384,199.380 244.654 C 200.184 242.923,200.773 241.439,200.689 241.356 C 200.605 241.272,199.695 243.032,198.667 245.267 M56.030 246.233 C 56.046 247.755,56.211 249.810,56.396 250.800 C 56.621 252.002,56.661 251.139,56.515 248.200 C 56.267 243.215,55.985 242.072,56.030 246.233 M193.190 256.724 C 189.428 264.133,189.312 264.382,189.912 263.800 C 190.494 263.235,196.943 250.409,196.744 250.211 C 196.654 250.121,195.055 253.052,193.190 256.724 M56.886 254.000 C 56.883 254.770,57.024 255.850,57.200 256.400 C 57.650 257.804,57.665 256.337,57.223 254.200 L 56.892 252.600 56.886 254.000 M37.682 258.600 C 37.662 259.920,37.795 261.720,37.977 262.600 L 38.308 264.200 38.311 262.600 C 38.312 261.720,38.179 259.920,38.015 258.600 L 37.718 256.200 37.682 258.600 M57.680 258.400 C 57.680 258.950,57.824 259.850,58.000 260.400 L 58.320 261.400 58.320 260.400 C 58.320 259.850,58.176 258.950,58.000 258.400 L 57.680 257.400 57.680 258.400 M58.436 261.938 C 58.382 262.735,59.702 267.067,59.856 266.600 C 59.929 266.380,59.648 265.120,59.231 263.800 C 58.814 262.480,58.457 261.642,58.436 261.938 M181.539 279.471 C 173.288 295.598,173.277 295.619,173.907 295.000 C 174.130 294.780,176.789 289.740,179.815 283.800 C 182.840 277.860,186.283 271.129,187.466 268.841 C 188.649 266.554,189.540 264.607,189.448 264.514 C 189.355 264.421,185.796 271.152,181.539 279.471 M38.486 266.200 C 38.483 267.080,38.624 268.250,38.800 268.800 L 39.120 269.800 39.137 268.800 C 39.146 268.250,39.005 267.080,38.823 266.200 L 38.492 264.600 38.486 266.200 M60.034 267.600 C 60.046 267.930,60.211 268.560,60.400 269.000 L 60.744 269.800 60.766 269.000 C 60.778 268.560,60.613 267.930,60.400 267.600 C 60.055 267.067,60.015 267.067,60.034 267.600 M161.480 269.863 C 148.211 295.917,147.747 296.792,145.058 300.800 C 141.260 306.462,134.456 312.316,129.491 314.194 C 128.441 314.591,127.653 314.986,127.739 315.072 C 128.120 315.453,132.380 313.385,135.137 311.482 C 142.179 306.619,145.273 302.375,153.568 286.200 C 156.727 280.040,160.010 273.668,160.862 272.040 C 161.715 270.411,162.333 269.000,162.236 268.902 C 162.139 268.805,161.798 269.237,161.480 269.863 M39.200 270.684 C 39.200 271.821,40.456 277.277,40.669 277.064 C 40.849 276.885,39.620 270.329,39.351 270.033 C 39.268 269.942,39.200 270.235,39.200 270.684 M61.600 272.065 C 61.600 272.541,64.055 278.215,64.418 278.578 C 64.900 279.060,64.942 278.320,64.462 277.780 C 64.277 277.571,63.709 276.320,63.200 275.000 C 62.377 272.865,61.600 271.439,61.600 272.065 M40.842 278.000 C 40.825 278.330,41.152 279.680,41.569 281.000 C 41.986 282.320,42.341 283.130,42.358 282.800 C 42.375 282.470,42.048 281.120,41.631 279.800 C 41.214 278.480,40.859 277.670,40.842 278.000 M65.624 280.888 C 65.554 281.741,70.302 288.909,73.647 293.000 C 77.351 297.531,83.826 303.612,88.800 307.232 C 92.215 309.717,99.854 313.879,100.259 313.474 C 100.353 313.380,99.074 312.659,97.417 311.872 C 95.760 311.085,93.606 309.892,92.630 309.221 C 91.654 308.549,90.749 308.000,90.619 308.000 C 90.417 308.000,87.976 306.157,84.003 303.005 C 78.462 298.609,71.809 290.558,66.124 281.370 C 65.861 280.947,65.636 280.730,65.624 280.888 M42.412 284.000 C 42.412 284.330,42.587 284.870,42.800 285.200 C 43.145 285.733,43.188 285.733,43.188 285.200 C 43.188 284.870,43.013 284.330,42.800 284.000 C 42.455 283.467,42.412 283.467,42.412 284.000 M43.262 286.400 C 43.261 286.730,43.606 287.720,44.029 288.600 C 44.452 289.480,44.686 289.750,44.550 289.200 C 44.175 287.695,43.266 285.716,43.262 286.400 M45.600 292.637 C 45.600 293.720,50.757 303.278,53.903 308.026 C 60.472 317.937,67.019 324.348,78.366 331.977 C 80.348 333.310,82.083 334.400,82.223 334.400 C 82.362 334.400,83.010 334.780,83.661 335.244 C 84.313 335.708,84.932 336.002,85.036 335.897 C 85.141 335.792,83.915 334.930,82.313 333.980 C 66.397 324.543,52.410 309.039,46.968 294.800 C 46.262 292.955,45.600 291.907,45.600 292.637 M168.088 305.677 C 165.228 311.245,161.769 318.050,160.401 320.800 C 153.907 333.855,148.745 339.483,139.600 343.479 C 137.950 344.200,136.820 344.792,137.089 344.795 C 139.147 344.816,146.349 340.515,149.735 337.243 C 154.948 332.204,155.513 331.310,163.912 314.800 C 167.213 308.310,170.747 301.398,171.764 299.440 C 172.782 297.483,173.541 295.807,173.451 295.717 C 173.361 295.628,170.948 300.109,168.088 305.677 M101.800 314.183 C 103.810 315.051,105.108 315.250,103.400 314.429 C 102.520 314.006,101.530 313.661,101.200 313.662 C 100.870 313.664,101.140 313.898,101.800 314.183 M105.600 315.600 C 105.930 315.813,106.650 315.978,107.200 315.966 C 108.116 315.946,108.133 315.915,107.400 315.600 C 106.216 315.091,104.813 315.091,105.600 315.600 M125.600 315.600 C 125.067 315.945,125.067 315.988,125.600 315.988 C 125.930 315.988,126.470 315.813,126.800 315.600 C 127.333 315.255,127.333 315.212,126.800 315.212 C 126.470 315.212,125.930 315.387,125.600 315.600 M109.000 316.400 C 109.440 316.589,110.250 316.744,110.800 316.744 C 111.712 316.744,111.729 316.713,111.000 316.400 C 110.560 316.211,109.750 316.056,109.200 316.056 C 108.288 316.056,108.271 316.087,109.000 316.400 M122.000 316.400 C 121.025 316.712,121.030 316.721,122.200 316.732 C 122.860 316.738,123.760 316.589,124.200 316.400 C 125.294 315.930,123.467 315.930,122.000 316.400 M114.500 317.094 C 115.545 317.176,117.255 317.176,118.300 317.094 C 119.345 317.012,118.490 316.944,116.400 316.944 C 114.310 316.944,113.455 317.012,114.500 317.094 M85.600 336.196 C 85.600 336.434,92.657 340.005,93.092 339.987 C 93.350 339.977,85.997 336.013,85.700 336.003 C 85.645 336.002,85.600 336.088,85.600 336.196 M94.971 340.786 C 95.836 341.234,96.736 341.593,96.971 341.584 C 97.550 341.562,95.648 340.565,94.400 340.236 C 93.816 340.081,94.053 340.310,94.971 340.786 M97.820 341.918 C 98.385 342.392,101.230 343.303,101.452 343.082 C 101.557 342.976,100.792 342.600,99.750 342.245 C 97.619 341.519,97.273 341.460,97.820 341.918 M102.400 343.600 C 102.730 343.813,103.270 343.988,103.600 343.988 C 104.133 343.988,104.133 343.945,103.600 343.600 C 103.270 343.387,102.730 343.212,102.400 343.212 C 101.867 343.212,101.867 343.255,102.400 343.600 M105.000 344.377 C 106.321 344.910,109.550 345.603,110.506 345.558 C 110.998 345.536,110.050 345.183,108.400 344.775 C 105.272 344.001,103.577 343.803,105.000 344.377 M134.600 345.200 L 133.800 345.544 134.600 345.566 C 135.040 345.578,135.670 345.413,136.000 345.200 C 136.795 344.686,135.796 344.686,134.600 345.200 M112.400 346.000 C 112.950 346.176,114.030 346.317,114.800 346.313 L 116.200 346.305 115.000 346.000 C 113.239 345.552,111.001 345.552,112.400 346.000 M130.800 346.000 C 129.825 346.312,129.830 346.321,131.000 346.332 C 131.660 346.338,132.560 346.189,133.000 346.000 C 134.094 345.530,132.267 345.530,130.800 346.000 M118.600 346.833 C 121.601 347.183,127.012 347.190,128.600 346.844 C 129.260 346.701,126.740 346.576,123.000 346.568 C 118.457 346.557,116.996 346.645,118.600 346.833 " stroke="none" fill="#94cd95" fill-rule="evenodd"></path></g></svg>